<svg xmlns="http://www.w3.org/2000/svg" xmlns:xlink="http://www.w3.org/1999/xlink" viewBox="0 0 2637.43 1082.05"><defs><style>.cls-1{fill:url(#_ÂÁ_Ï_ÌÌ_È_ËÂÌÚ_3);}.cls-2{fill:url(#_ÂÁ_Ï_ÌÌ_È_ËÂÌÚ_3-2);}.cls-3{fill:url(#_ÂÁ_Ï_ÌÌ_È_ËÂÌÚ_3-3);}.cls-4{fill:url(#_ÂÁ_Ï_ÌÌ_È_ËÂÌÚ_349);}.cls-5{fill:#fff;}.cls-6{fill:url(#_ÂÁ_Ï_ÌÌ_È_ËÂÌÚ_3-4);}.cls-7{fill:url(#_ÂÁ_Ï_ÌÌ_È_ËÂÌÚ_3-5);}.cls-8{fill:url(#_ÂÁ_Ï_ÌÌ_È_ËÂÌÚ_3-6);}.cls-9{fill:url(#_ÂÁ_Ï_ÌÌ_È_ËÂÌÚ_3-7);}.cls-10{fill:url(#_ÂÁ_Ï_ÌÌ_È_ËÂÌÚ_3-8);}.cls-11{fill:url(#_ÂÁ_Ï_ÌÌ_È_ËÂÌÚ_3-9);}.cls-12{fill:url(#_ÂÁ_Ï_ÌÌ_È_ËÂÌÚ_379);}.cls-13{fill:url(#_ÂÁ_Ï_ÌÌ_È_ËÂÌÚ_349-2);}.cls-14{fill:url(#_ÂÁ_Ï_ÌÌ_È_ËÂÌÚ_349-3);}.cls-15{fill:url(#_ÂÁ_Ï_ÌÌ_È_ËÂÌÚ_349-4);}.cls-16{fill:url(#_ÂÁ_Ï_ÌÌ_È_ËÂÌÚ_349-5);}.cls-17{fill:url(#_ÂÁ_Ï_ÌÌ_È_ËÂÌÚ_349-6);}.cls-18{fill:url(#_ÂÁ_Ï_ÌÌ_È_ËÂÌÚ_349-7);}.cls-19{fill:url(#_ÂÁ_Ï_ÌÌ_È_ËÂÌÚ_349-8);}.cls-20{fill:url(#_ÂÁ_Ï_ÌÌ_È_ËÂÌÚ_349-9);}.cls-21{fill:url(#_ÂÁ_Ï_ÌÌ_È_ËÂÌÚ_357);}.cls-22{fill:url(#_ÂÁ_Ï_ÌÌ_È_ËÂÌÚ_349-10);}.cls-23{fill:url(#_ÂÁ_Ï_ÌÌ_È_ËÂÌÚ_349-11);}.cls-24{fill:url(#_ÂÁ_Ï_ÌÌ_È_ËÂÌÚ_357-2);}.cls-25{fill:url(#_ÂÁ_Ï_ÌÌ_È_ËÂÌÚ_357-3);}.cls-26{fill:url(#_ÂÁ_Ï_ÌÌ_È_ËÂÌÚ_357-4);}.cls-27{fill:url(#_ÂÁ_Ï_ÌÌ_È_ËÂÌÚ_357-5);}.cls-28{fill:url(#_ÂÁ_Ï_ÌÌ_È_ËÂÌÚ_357-6);}.cls-29{fill:url(#_ÂÁ_Ï_ÌÌ_È_ËÂÌÚ_349-12);}.cls-30{fill:url(#_ÂÁ_Ï_ÌÌ_È_ËÂÌÚ_74);}.cls-31{fill:url(#_ÂÁ_Ï_ÌÌ_È_ËÂÌÚ_21);}.cls-32{fill:url(#_ÂÁ_Ï_ÌÌ_È_ËÂÌÚ_349-13);}.cls-33{fill:url(#_ÂÁ_Ï_ÌÌ_È_ËÂÌÚ_40);}.cls-34{fill:url(#_ÂÁ_Ï_ÌÌ_È_ËÂÌÚ_57);}.cls-35{fill:url(#_ÂÁ_Ï_ÌÌ_È_ËÂÌÚ_57-2);}.cls-36{fill:url(#_ÂÁ_Ï_ÌÌ_È_ËÂÌÚ_40-2);}.cls-37{fill:url(#_ÂÁ_Ï_ÌÌ_È_ËÂÌÚ_379-2);}.cls-38{fill:url(#_ÂÁ_Ï_ÌÌ_È_ËÂÌÚ_349-14);}.cls-39{fill:url(#_ÂÁ_Ï_ÌÌ_È_ËÂÌÚ_40-3);}.cls-40{fill:url(#_ÂÁ_Ï_ÌÌ_È_ËÂÌÚ_357-7);}.cls-41{fill:url(#_ÂÁ_Ï_ÌÌ_È_ËÂÌÚ_349-15);}.cls-42{fill:url(#_ÂÁ_Ï_ÌÌ_È_ËÂÌÚ_40-4);}.cls-43{fill:url(#_ÂÁ_Ï_ÌÌ_È_ËÂÌÚ_357-8);}.cls-44{fill:url(#_ÂÁ_Ï_ÌÌ_È_ËÂÌÚ_349-16);}.cls-45{fill:url(#_ÂÁ_Ï_ÌÌ_È_ËÂÌÚ_74-2);}.cls-46{fill:url(#_ÂÁ_Ï_ÌÌ_È_ËÂÌÚ_40-5);}.cls-47{fill:url(#_ÂÁ_Ï_ÌÌ_È_ËÂÌÚ_349-17);}.cls-48{fill:url(#_ÂÁ_Ï_ÌÌ_È_ËÂÌÚ_379-3);}.cls-49{fill:url(#_ÂÁ_Ï_ÌÌ_È_ËÂÌÚ_40-6);}.cls-50{fill:url(#_ÂÁ_Ï_ÌÌ_È_ËÂÌÚ_40-7);}.cls-51{fill:url(#_ÂÁ_Ï_ÌÌ_È_ËÂÌÚ_40-8);}.cls-52{fill:url(#_ÂÁ_Ï_ÌÌ_È_ËÂÌÚ_40-9);}.cls-53{fill:url(#_ÂÁ_Ï_ÌÌ_È_ËÂÌÚ_40-10);}.cls-54{fill:url(#_ÂÁ_Ï_ÌÌ_È_ËÂÌÚ_379-4);}.cls-55{fill:url(#_ÂÁ_Ï_ÌÌ_È_ËÂÌÚ_3-10);}.cls-56{fill:url(#_ÂÁ_Ï_ÌÌ_È_ËÂÌÚ_3-11);}.cls-57{fill:url(#_ÂÁ_Ï_ÌÌ_È_ËÂÌÚ_3-12);}.cls-58{fill:url(#_ÂÁ_Ï_ÌÌ_È_ËÂÌÚ_3-13);}.cls-59{fill:url(#_ÂÁ_Ï_ÌÌ_È_ËÂÌÚ_3-14);}.cls-60{fill:url(#_ÂÁ_Ï_ÌÌ_È_ËÂÌÚ_3-15);}.cls-61{fill:url(#_ÂÁ_Ï_ÌÌ_È_ËÂÌÚ_47);}.cls-62{fill:url(#_ÂÁ_Ï_ÌÌ_È_ËÂÌÚ_357-9);}.cls-63{fill:url(#_ÂÁ_Ï_ÌÌ_È_ËÂÌÚ_357-10);}.cls-64{fill:url(#_ÂÁ_Ï_ÌÌ_È_ËÂÌÚ_21-2);}.cls-65{fill:url(#_ÂÁ_Ï_ÌÌ_È_ËÂÌÚ_21-3);}.cls-66{fill:url(#_ÂÁ_Ï_ÌÌ_È_ËÂÌÚ_74-3);}.cls-67{fill:url(#_ÂÁ_Ï_ÌÌ_È_ËÂÌÚ_74-4);}.cls-68{fill:url(#_ÂÁ_Ï_ÌÌ_È_ËÂÌÚ_74-5);}.cls-69{fill:#e0ba90;}.cls-70{fill:#e7c8aa;}.cls-71{fill:#0b0d3f;}.cls-72{fill:url(#_ÂÁ_Ï_ÌÌ_È_ËÂÌÚ_379-5);}.cls-73{fill:url(#_ÂÁ_Ï_ÌÌ_È_ËÂÌÚ_379-6);}.cls-74{fill:url(#_ÂÁ_Ï_ÌÌ_È_ËÂÌÚ_357-11);}.cls-75{fill:#d3c4ae;}.cls-76{fill:url(#_ÂÁ_Ï_ÌÌ_È_ËÂÌÚ_349-18);}.cls-77{fill:url(#_ÂÁ_Ï_ÌÌ_È_ËÂÌÚ_357-12);}.cls-78{fill:url(#_ÂÁ_Ï_ÌÌ_È_ËÂÌÚ_349-19);}.cls-79{fill:url(#_ÂÁ_Ï_ÌÌ_È_ËÂÌÚ_3-16);}.cls-80{fill:url(#_ÂÁ_Ï_ÌÌ_È_ËÂÌÚ_21-4);}.cls-81{fill:url(#_ÂÁ_Ï_ÌÌ_È_ËÂÌÚ_21-5);}.cls-82{fill:url(#_ÂÁ_Ï_ÌÌ_È_ËÂÌÚ_21-6);}.cls-83{fill:url(#_ÂÁ_Ï_ÌÌ_È_ËÂÌÚ_3-17);}.cls-84{fill:url(#_ÂÁ_Ï_ÌÌ_È_ËÂÌÚ_40-11);}.cls-85{fill:url(#_ÂÁ_Ï_ÌÌ_È_ËÂÌÚ_349-20);}.cls-86{fill:url(#_ÂÁ_Ï_ÌÌ_È_ËÂÌÚ_40-12);}.cls-87{fill:url(#_ÂÁ_Ï_ÌÌ_È_ËÂÌÚ_47-2);}.cls-88{fill:url(#_ÂÁ_Ï_ÌÌ_È_ËÂÌÚ_357-13);}.cls-89{fill:url(#_ÂÁ_Ï_ÌÌ_È_ËÂÌÚ_357-14);}.cls-90,.cls-91{opacity:0.4;}.cls-90{fill:url(#_ÂÁ_Ï_ÌÌ_È_ËÂÌÚ_3-18);}.cls-91{fill:url(#_ÂÁ_Ï_ÌÌ_È_ËÂÌÚ_3-19);}.cls-92{fill:url(#_ÂÁ_Ï_ÌÌ_È_ËÂÌÚ_349-21);}.cls-93{fill:url(#_ÂÁ_Ï_ÌÌ_È_ËÂÌÚ_21-7);}.cls-94{fill:url(#_ÂÁ_Ï_ÌÌ_È_ËÂÌÚ_349-22);}.cls-95{fill:url(#_ÂÁ_Ï_ÌÌ_È_ËÂÌÚ_357-15);}.cls-96{fill:url(#_ÂÁ_Ï_ÌÌ_È_ËÂÌÚ_379-7);}.cls-97{fill:#deb88e;}.cls-98{fill:#e5c6a8;}.cls-99{fill:url(#_ÂÁ_Ï_ÌÌ_È_ËÂÌÚ_3-20);}.cls-100{fill:url(#_ÂÁ_Ï_ÌÌ_È_ËÂÌÚ_384);}.cls-101{fill:url(#_ÂÁ_Ï_ÌÌ_È_ËÂÌÚ_379-8);}.cls-102{fill:url(#_ÂÁ_Ï_ÌÌ_È_ËÂÌÚ_21-8);}.cls-103{fill:url(#_ÂÁ_Ï_ÌÌ_È_ËÂÌÚ_21-9);}.cls-104{fill:url(#_ÂÁ_Ï_ÌÌ_È_ËÂÌÚ_21-10);}.cls-105{fill:url(#_ÂÁ_Ï_ÌÌ_È_ËÂÌÚ_40-13);}.cls-106{fill:url(#_ÂÁ_Ï_ÌÌ_È_ËÂÌÚ_349-23);}.cls-107{fill:url(#_ÂÁ_Ï_ÌÌ_È_ËÂÌÚ_40-14);}.cls-108{fill:url(#_ÂÁ_Ï_ÌÌ_È_ËÂÌÚ_357-16);}.cls-109{fill:url(#_ÂÁ_Ï_ÌÌ_È_ËÂÌÚ_357-17);}.cls-110{fill:url(#_ÂÁ_Ï_ÌÌ_È_ËÂÌÚ_379-9);}.cls-111{fill:url(#_ÂÁ_Ï_ÌÌ_È_ËÂÌÚ_384-2);}.cls-112{fill:url(#_ÂÁ_Ï_ÌÌ_È_ËÂÌÚ_379-10);}.cls-113{fill:url(#_ÂÁ_Ï_ÌÌ_È_ËÂÌÚ_21-11);}.cls-114{fill:url(#_ÂÁ_Ï_ÌÌ_È_ËÂÌÚ_21-12);}.cls-115{fill:url(#_ÂÁ_Ï_ÌÌ_È_ËÂÌÚ_21-13);}.cls-116{fill:url(#_ÂÁ_Ï_ÌÌ_È_ËÂÌÚ_384-3);}.cls-117{fill:url(#_ÂÁ_Ï_ÌÌ_È_ËÂÌÚ_379-11);}.cls-118{fill:url(#_ÂÁ_Ï_ÌÌ_È_ËÂÌÚ_379-12);}.cls-119{fill:url(#_ÂÁ_Ï_ÌÌ_È_ËÂÌÚ_384-4);}.cls-120{fill:url(#_ÂÁ_Ï_ÌÌ_È_ËÂÌÚ_384-5);}.cls-121{fill:url(#_ÂÁ_Ï_ÌÌ_È_ËÂÌÚ_384-6);}.cls-122{fill:url(#_ÂÁ_Ï_ÌÌ_È_ËÂÌÚ_384-7);}.cls-123{fill:url(#_ÂÁ_Ï_ÌÌ_È_ËÂÌÚ_357-18);}.cls-124{fill:url(#_ÂÁ_Ï_ÌÌ_È_ËÂÌÚ_357-19);}.cls-125{fill:url(#_ÂÁ_Ï_ÌÌ_È_ËÂÌÚ_357-20);}.cls-126{fill:#96d1f1;}.cls-127{fill:url(#_ÂÁ_Ï_ÌÌ_È_ËÂÌÚ_379-13);}.cls-128{fill:url(#_ÂÁ_Ï_ÌÌ_È_ËÂÌÚ_349-24);}.cls-129{fill:url(#_ÂÁ_Ï_ÌÌ_È_ËÂÌÚ_40-15);}.cls-130{fill:url(#_ÂÁ_Ï_ÌÌ_È_ËÂÌÚ_40-16);}.cls-131{fill:url(#_ÂÁ_Ï_ÌÌ_È_ËÂÌÚ_40-17);}.cls-132{fill:url(#_ÂÁ_Ï_ÌÌ_È_ËÂÌÚ_40-18);}.cls-133{fill:url(#_ÂÁ_Ï_ÌÌ_È_ËÂÌÚ_40-19);}.cls-134{fill:url(#_ÂÁ_Ï_ÌÌ_È_ËÂÌÚ_379-14);}.cls-135{fill:url(#_ÂÁ_Ï_ÌÌ_È_ËÂÌÚ_357-21);}</style><linearGradient id="_ÂÁ_Ï_ÌÌ_È_ËÂÌÚ_3" x1="1376.38" y1="573.62" x2="1741.36" y2="434.13" gradientUnits="userSpaceOnUse"><stop offset="0" stop-color="#f6e0e2"/><stop offset="1" stop-color="#a7b6e7"/></linearGradient><linearGradient id="_ÂÁ_Ï_ÌÌ_È_ËÂÌÚ_3-2" x1="2358.94" y1="77.49" x2="1983.34" y2="-193.38" gradientTransform="translate(1205.56 -1444.65) rotate(70.93)" xlink:href="#_ÂÁ_Ï_ÌÌ_È_ËÂÌÚ_3"/><linearGradient id="_ÂÁ_Ï_ÌÌ_È_ËÂÌÚ_3-3" x1="35.87" y1="605.72" x2="449.16" y2="851.53" xlink:href="#_ÂÁ_Ï_ÌÌ_È_ËÂÌÚ_3"/><linearGradient id="_ÂÁ_Ï_ÌÌ_È_ËÂÌÚ_349" x1="2235.57" y1="427.5" x2="2235.57" y2="987.09" gradientUnits="userSpaceOnUse"><stop offset="0" stop-color="#7f8dd4"/><stop offset="1" stop-color="#4c5abd"/></linearGradient><linearGradient id="_ÂÁ_Ï_ÌÌ_È_ËÂÌÚ_3-4" x1="2009.12" y1="706.46" x2="2382.65" y2="706.46" xlink:href="#_ÂÁ_Ï_ÌÌ_È_ËÂÌÚ_3"/><linearGradient id="_ÂÁ_Ï_ÌÌ_È_ËÂÌÚ_3-5" x1="2009.12" y1="757.74" x2="2382.65" y2="757.74" xlink:href="#_ÂÁ_Ï_ÌÌ_È_ËÂÌÚ_3"/><linearGradient id="_ÂÁ_Ï_ÌÌ_È_ËÂÌÚ_3-6" x1="2009.12" y1="655.18" x2="2382.65" y2="655.18" xlink:href="#_ÂÁ_Ï_ÌÌ_È_ËÂÌÚ_3"/><linearGradient id="_ÂÁ_Ï_ÌÌ_È_ËÂÌÚ_3-7" x1="2009.12" y1="603.91" x2="2382.65" y2="603.91" xlink:href="#_ÂÁ_Ï_ÌÌ_È_ËÂÌÚ_3"/><linearGradient id="_ÂÁ_Ï_ÌÌ_È_ËÂÌÚ_3-8" x1="2009.12" y1="809.02" x2="2382.65" y2="809.02" xlink:href="#_ÂÁ_Ï_ÌÌ_È_ËÂÌÚ_3"/><linearGradient id="_ÂÁ_Ï_ÌÌ_È_ËÂÌÚ_3-9" x1="2009.12" y1="860.29" x2="2382.65" y2="860.29" xlink:href="#_ÂÁ_Ï_ÌÌ_È_ËÂÌÚ_3"/><linearGradient id="_ÂÁ_Ï_ÌÌ_È_ËÂÌÚ_379" x1="2303.66" y1="557.06" x2="2303.66" y2="454.64" gradientUnits="userSpaceOnUse"><stop offset="0" stop-color="#eebfc0"/><stop offset="1" stop-color="#e5938d"/></linearGradient><linearGradient id="_ÂÁ_Ï_ÌÌ_È_ËÂÌÚ_349-2" x1="2184.03" y1="643.37" x2="2184.03" y2="576.29" xlink:href="#_ÂÁ_Ï_ÌÌ_È_ËÂÌÚ_349"/><linearGradient id="_ÂÁ_Ï_ÌÌ_È_ËÂÌÚ_349-3" x1="2229.89" y1="643.37" x2="2229.89" y2="576.29" xlink:href="#_ÂÁ_Ï_ÌÌ_È_ËÂÌÚ_349"/><linearGradient id="_ÂÁ_Ï_ÌÌ_È_ËÂÌÚ_349-4" x1="2272.91" y1="643.37" x2="2272.91" y2="576.29" xlink:href="#_ÂÁ_Ï_ÌÌ_È_ËÂÌÚ_349"/><linearGradient id="_ÂÁ_Ï_ÌÌ_È_ËÂÌÚ_349-5" x1="2306.19" y1="643.37" x2="2306.19" y2="576.29" xlink:href="#_ÂÁ_Ï_ÌÌ_È_ËÂÌÚ_349"/><linearGradient id="_ÂÁ_Ï_ÌÌ_È_ËÂÌÚ_349-6" x1="2340.79" y1="643.37" x2="2340.79" y2="576.29" xlink:href="#_ÂÁ_Ï_ÌÌ_È_ËÂÌÚ_349"/><linearGradient id="_ÂÁ_Ï_ÌÌ_È_ËÂÌÚ_349-7" x1="2383.68" y1="643.37" x2="2383.68" y2="576.29" xlink:href="#_ÂÁ_Ï_ÌÌ_È_ËÂÌÚ_349"/><linearGradient id="_ÂÁ_Ï_ÌÌ_È_ËÂÌÚ_349-8" x1="2423.25" y1="643.37" x2="2423.25" y2="576.29" xlink:href="#_ÂÁ_Ï_ÌÌ_È_ËÂÌÚ_349"/><linearGradient id="_ÂÁ_Ï_ÌÌ_È_ËÂÌÚ_349-9" x1="2419.78" y1="782.91" x2="2593.63" y2="782.91" xlink:href="#_ÂÁ_Ï_ÌÌ_È_ËÂÌÚ_349"/><linearGradient id="_ÂÁ_Ï_ÌÌ_È_ËÂÌÚ_357" x1="2435.09" y1="891.88" x2="2515.58" y2="891.88" gradientUnits="userSpaceOnUse"><stop offset="0" stop-color="#4c5abd"/><stop offset="1" stop-color="#1d299f"/></linearGradient><linearGradient id="_ÂÁ_Ï_ÌÌ_È_ËÂÌÚ_349-10" x1="2432.97" y1="807.33" x2="2518.27" y2="807.33" xlink:href="#_ÂÁ_Ï_ÌÌ_È_ËÂÌÚ_349"/><linearGradient id="_ÂÁ_Ï_ÌÌ_È_ËÂÌÚ_349-11" x1="2432.97" y1="908.46" x2="2518.27" y2="908.46" xlink:href="#_ÂÁ_Ï_ÌÌ_È_ËÂÌÚ_349"/><linearGradient id="_ÂÁ_Ï_ÌÌ_È_ËÂÌÚ_357-2" x1="2432.97" y1="901.2" x2="2518.27" y2="901.2" xlink:href="#_ÂÁ_Ï_ÌÌ_È_ËÂÌÚ_357"/><linearGradient id="_ÂÁ_Ï_ÌÌ_È_ËÂÌÚ_357-3" x1="2519.16" y1="866.18" x2="2530.79" y2="866.18" xlink:href="#_ÂÁ_Ï_ÌÌ_È_ËÂÌÚ_357"/><linearGradient id="_ÂÁ_Ï_ÌÌ_È_ËÂÌÚ_357-4" x1="2465.39" y1="790.91" x2="2477.01" y2="790.91" xlink:href="#_ÂÁ_Ï_ÌÌ_È_ËÂÌÚ_357"/><linearGradient id="_ÂÁ_Ï_ÌÌ_È_ËÂÌÚ_357-5" x1="2547.8" y1="866.18" x2="2559.43" y2="866.18" xlink:href="#_ÂÁ_Ï_ÌÌ_È_ËÂÌÚ_357"/><linearGradient id="_ÂÁ_Ï_ÌÌ_È_ËÂÌÚ_357-6" x1="2354.19" y1="932.1" x2="2494.75" y2="932.1" xlink:href="#_ÂÁ_Ï_ÌÌ_È_ËÂÌÚ_357"/><linearGradient id="_ÂÁ_Ï_ÌÌ_È_ËÂÌÚ_349-12" x1="2360.03" y1="932.1" x2="2478.65" y2="932.1" xlink:href="#_ÂÁ_Ï_ÌÌ_È_ËÂÌÚ_349"/><linearGradient id="_ÂÁ_Ï_ÌÌ_È_ËÂÌÚ_74" x1="2386.78" y1="942.8" x2="2456.08" y2="983.34" gradientUnits="userSpaceOnUse"><stop offset="0" stop-color="#141a6b"/><stop offset="1" stop-color="#0b0d3f"/></linearGradient><linearGradient id="_ÂÁ_Ï_ÌÌ_È_ËÂÌÚ_21" x1="2479.99" y1="956.44" x2="2541.85" y2="956.44" gradientUnits="userSpaceOnUse"><stop offset="0" stop-color="#fff"/><stop offset="1" stop-color="#e7eaf7"/></linearGradient><linearGradient id="_ÂÁ_Ï_ÌÌ_È_ËÂÌÚ_349-13" x1="584.81" y1="314.77" x2="584.81" y2="225.19" xlink:href="#_ÂÁ_Ï_ÌÌ_È_ËÂÌÚ_349"/><linearGradient id="_ÂÁ_Ï_ÌÌ_È_ËÂÌÚ_40" x1="314.24" y1="496.84" x2="849.16" y2="618.23" gradientUnits="userSpaceOnUse"><stop offset="0" stop-color="#a7b6e7"/><stop offset="1" stop-color="#8492d6"/></linearGradient><linearGradient id="_ÂÁ_Ï_ÌÌ_È_ËÂÌÚ_57" x1="584.81" y1="295.8" x2="584.81" y2="356.29" gradientUnits="userSpaceOnUse"><stop offset="0" stop-color="#f6e0e2"/><stop offset="1" stop-color="#eebfc0"/></linearGradient><linearGradient id="_ÂÁ_Ï_ÌÌ_È_ËÂÌÚ_57-2" x1="584.81" y1="361.02" x2="584.81" y2="390.15" xlink:href="#_ÂÁ_Ï_ÌÌ_È_ËÂÌÚ_57"/><linearGradient id="_ÂÁ_Ï_ÌÌ_È_ËÂÌÚ_40-2" x1="1920.11" y1="2184.01" x2="1934.48" y2="2184.01" gradientTransform="translate(3309.71 2816.42) rotate(-180)" xlink:href="#_ÂÁ_Ï_ÌÌ_È_ËÂÌÚ_40"/><linearGradient id="_ÂÁ_Ï_ÌÌ_È_ËÂÌÚ_379-2" x1="1906.66" y1="2294.1" x2="1947.82" y2="2294.1" gradientTransform="matrix(0.9, 0.43, -0.43, 0.9, 581.41, -2167.89)" xlink:href="#_ÂÁ_Ï_ÌÌ_È_ËÂÌÚ_379"/><linearGradient id="_ÂÁ_Ï_ÌÌ_È_ËÂÌÚ_349-14" x1="1873.12" y1="2038.54" x2="1981.48" y2="2038.54" gradientTransform="matrix(0.9, 0.43, -0.43, 0.9, 581.41, -2167.89)" xlink:href="#_ÂÁ_Ï_ÌÌ_È_ËÂÌÚ_349"/><linearGradient id="_ÂÁ_Ï_ÌÌ_È_ËÂÌÚ_40-3" x1="1886.23" y1="2038.54" x2="1963.19" y2="2038.54" gradientTransform="matrix(0.9, 0.43, -0.43, 0.9, 581.41, -2167.89)" xlink:href="#_ÂÁ_Ï_ÌÌ_È_ËÂÌÚ_40"/><linearGradient id="_ÂÁ_Ï_ÌÌ_È_ËÂÌÚ_357-7" x1="1773.81" y1="-2295.86" x2="1911.62" y2="-2215.72" gradientTransform="translate(1231.77 3597.04) rotate(-57.92)" xlink:href="#_ÂÁ_Ï_ÌÌ_È_ËÂÌÚ_357"/><linearGradient id="_ÂÁ_Ï_ÌÌ_È_ËÂÌÚ_349-15" x1="1784.43" y1="-2287.66" x2="1898.43" y2="-2225.29" gradientTransform="translate(1231.77 3597.04) rotate(-57.92)" xlink:href="#_ÂÁ_Ï_ÌÌ_È_ËÂÌÚ_349"/><linearGradient id="_ÂÁ_Ï_ÌÌ_È_ËÂÌÚ_40-4" x1="1798.75" y1="-2260.37" x2="1856.75" y2="-2186.6" gradientTransform="translate(1231.77 3597.04) rotate(-57.92)" xlink:href="#_ÂÁ_Ï_ÌÌ_È_ËÂÌÚ_40"/><linearGradient id="_ÂÁ_Ï_ÌÌ_È_ËÂÌÚ_357-8" x1="303.94" y1="829.56" x2="461.28" y2="829.56" xlink:href="#_ÂÁ_Ï_ÌÌ_È_ËÂÌÚ_357"/><linearGradient id="_ÂÁ_Ï_ÌÌ_È_ËÂÌÚ_349-16" x1="310.48" y1="829.56" x2="443.25" y2="829.56" xlink:href="#_ÂÁ_Ï_ÌÌ_È_ËÂÌÚ_349"/><linearGradient id="_ÂÁ_Ï_ÌÌ_È_ËÂÌÚ_74-2" x1="340.42" y1="841.53" x2="417.99" y2="886.91" xlink:href="#_ÂÁ_Ï_ÌÌ_È_ËÂÌÚ_74"/><linearGradient id="_ÂÁ_Ï_ÌÌ_È_ËÂÌÚ_40-5" x1="1240.41" y1="561.53" x2="1256.52" y2="561.53" gradientTransform="translate(2490.86 1070.72) rotate(180)" xlink:href="#_ÂÁ_Ï_ÌÌ_È_ËÂÌÚ_40"/><linearGradient id="_ÂÁ_Ï_ÌÌ_È_ËÂÌÚ_349-17" x1="1195.76" y1="414.66" x2="1301.48" y2="414.66" gradientTransform="translate(1.97 -69.61) rotate(0.8)" xlink:href="#_ÂÁ_Ï_ÌÌ_È_ËÂÌÚ_349"/><linearGradient id="_ÂÁ_Ï_ÌÌ_È_ËÂÌÚ_379-3" x1="1228.22" y1="671.62" x2="1268.98" y2="671.62" gradientTransform="translate(1.97 -69.61) rotate(0.8)" xlink:href="#_ÂÁ_Ï_ÌÌ_È_ËÂÌÚ_379"/><linearGradient id="_ÂÁ_Ï_ÌÌ_È_ËÂÌÚ_40-6" x1="1111.44" y1="-1750.73" x2="1010.4" y2="-1774.87" gradientTransform="matrix(-0.97, -0.22, 0.22, -0.97, 2777.9, -1083.22)" xlink:href="#_ÂÁ_Ï_ÌÌ_È_ËÂÌÚ_40"/><linearGradient id="_ÂÁ_Ï_ÌÌ_È_ËÂÌÚ_40-7" x1="1097.6" y1="-1754.33" x2="1023.71" y2="-1771.98" gradientTransform="matrix(-0.97, -0.22, 0.22, -0.97, 2777.9, -1083.22)" xlink:href="#_ÂÁ_Ï_ÌÌ_È_ËÂÌÚ_40"/><linearGradient id="_ÂÁ_Ï_ÌÌ_È_ËÂÌÚ_40-8" x1="1083.84" y1="-1757.83" x2="1028.33" y2="-1771.08" gradientTransform="matrix(-0.97, -0.22, 0.22, -0.97, 2777.9, -1083.22)" xlink:href="#_ÂÁ_Ï_ÌÌ_È_ËÂÌÚ_40"/><linearGradient id="_ÂÁ_Ï_ÌÌ_È_ËÂÌÚ_40-9" x1="1077.01" y1="-1759.52" x2="1028.35" y2="-1771.14" gradientTransform="matrix(-0.97, -0.22, 0.22, -0.97, 2777.9, -1083.22)" xlink:href="#_ÂÁ_Ï_ÌÌ_È_ËÂÌÚ_40"/><linearGradient id="_ÂÁ_Ï_ÌÌ_È_ËÂÌÚ_40-10" x1="1520.73" y1="1361.19" x2="1535.14" y2="1361.19" gradientTransform="matrix(-1, 0, 0, -1, 2849.99, 1920.48)" xlink:href="#_ÂÁ_Ï_ÌÌ_È_ËÂÌÚ_40"/><linearGradient id="_ÂÁ_Ï_ÌÌ_È_ËÂÌÚ_379-4" x1="1507.51" y1="1471.28" x2="1548.59" y2="1471.28" gradientTransform="matrix(0.97, 0.22, -0.22, 0.97, 136.88, -1107.98)" xlink:href="#_ÂÁ_Ï_ÌÌ_È_ËÂÌÚ_379"/><linearGradient id="_ÂÁ_Ï_ÌÌ_È_ËÂÌÚ_3-10" x1="1131.33" y1="776.4" x2="1391.38" y2="702.81" xlink:href="#_ÂÁ_Ï_ÌÌ_È_ËÂÌÚ_3"/><linearGradient id="_ÂÁ_Ï_ÌÌ_È_ËÂÌÚ_3-11" x1="1133.53" y1="913.84" x2="1331.43" y2="857.4" xlink:href="#_ÂÁ_Ï_ÌÌ_È_ËÂÌÚ_3"/><linearGradient id="_ÂÁ_Ï_ÌÌ_È_ËÂÌÚ_3-12" x1="1508.8" y1="1138.8" x2="1556.16" y2="1138.8" gradientTransform="matrix(1, -0.1, 0.1, 1, -661.51, -52.61)" xlink:href="#_ÂÁ_Ï_ÌÌ_È_ËÂÌÚ_3"/><linearGradient id="_ÂÁ_Ï_ÌÌ_È_ËÂÌÚ_3-13" x1="1532.48" y1="1138.8" x2="1556.16" y2="1138.8" gradientTransform="matrix(1, -0.1, 0.1, 1, -661.51, -52.61)" xlink:href="#_ÂÁ_Ï_ÌÌ_È_ËÂÌÚ_3"/><linearGradient id="_ÂÁ_Ï_ÌÌ_È_ËÂÌÚ_3-14" x1="870.34" y1="2216.87" x2="913.84" y2="2216.87" gradientTransform="matrix(0.68, 0.74, -0.74, 0.68, 2030.52, -1204.51)" xlink:href="#_ÂÁ_Ï_ÌÌ_È_ËÂÌÚ_3"/><linearGradient id="_ÂÁ_Ï_ÌÌ_È_ËÂÌÚ_3-15" x1="892.09" y1="2216.87" x2="913.84" y2="2216.87" gradientTransform="matrix(0.68, 0.74, -0.74, 0.68, 2030.52, -1204.51)" xlink:href="#_ÂÁ_Ï_ÌÌ_È_ËÂÌÚ_3"/><linearGradient id="_ÂÁ_Ï_ÌÌ_È_ËÂÌÚ_47" x1="744.63" y1="865.67" x2="899.07" y2="927.38" gradientUnits="userSpaceOnUse"><stop offset="0" stop-color="#eebfc0"/><stop offset="0.12" stop-color="#ebb3b3"/><stop offset="0.49" stop-color="#e29592"/><stop offset="0.8" stop-color="#dd827d"/><stop offset="1" stop-color="#db7b76"/></linearGradient><linearGradient id="_ÂÁ_Ï_ÌÌ_È_ËÂÌÚ_357-9" x1="685.57" y1="967.14" x2="858.99" y2="967.14" gradientTransform="matrix(0.99, 0.14, -0.14, 0.77, 303.7, 74.45)" xlink:href="#_ÂÁ_Ï_ÌÌ_È_ËÂÌÚ_357"/><linearGradient id="_ÂÁ_Ï_ÌÌ_È_ËÂÌÚ_357-10" x1="883.3" y1="912.67" x2="896.4" y2="907.57" xlink:href="#_ÂÁ_Ï_ÌÌ_È_ËÂÌÚ_357"/><linearGradient id="_ÂÁ_Ï_ÌÌ_È_ËÂÌÚ_21-2" x1="905.55" y1="929.54" x2="969.6" y2="929.54" xlink:href="#_ÂÁ_Ï_ÌÌ_È_ËÂÌÚ_21"/><linearGradient id="_ÂÁ_Ï_ÌÌ_È_ËÂÌÚ_21-3" x1="855.54" y1="947.29" x2="924.82" y2="947.29" xlink:href="#_ÂÁ_Ï_ÌÌ_È_ËÂÌÚ_21"/><linearGradient id="_ÂÁ_Ï_ÌÌ_È_ËÂÌÚ_74-3" x1="1096" y1="1244.26" x2="1105.62" y2="1244.26" gradientTransform="translate(2593.06 606.64) rotate(115.54)" xlink:href="#_ÂÁ_Ï_ÌÌ_È_ËÂÌÚ_74"/><linearGradient id="_ÂÁ_Ï_ÌÌ_È_ËÂÌÚ_74-4" x1="1116.19" y1="1237.38" x2="1124.2" y2="1237.38" gradientTransform="translate(601.9 -550.69) rotate(27.79)" xlink:href="#_ÂÁ_Ï_ÌÌ_È_ËÂÌÚ_74"/><linearGradient id="_ÂÁ_Ï_ÌÌ_È_ËÂÌÚ_74-5" x1="1109.91" y1="1222.39" x2="1122.14" y2="1222.39" gradientTransform="translate(601.9 -550.69) rotate(27.79)" xlink:href="#_ÂÁ_Ï_ÌÌ_È_ËÂÌÚ_74"/><linearGradient id="_ÂÁ_Ï_ÌÌ_È_ËÂÌÚ_379-5" x1="793.08" y1="432.8" x2="822.4" y2="451.68" xlink:href="#_ÂÁ_Ï_ÌÌ_È_ËÂÌÚ_379"/><linearGradient id="_ÂÁ_Ï_ÌÌ_È_ËÂÌÚ_379-6" x1="9079.62" y1="455.97" x2="9000.39" y2="509.81" gradientTransform="matrix(-1, 0, 0, 1, 9875.1, 0)" xlink:href="#_ÂÁ_Ï_ÌÌ_È_ËÂÌÚ_379"/><linearGradient id="_ÂÁ_Ï_ÌÌ_È_ËÂÌÚ_357-11" x1="9027.22" y1="386.26" x2="8990.55" y2="388.14" gradientTransform="matrix(-1, 0, 0, 1, 9875.1, 0)" xlink:href="#_ÂÁ_Ï_ÌÌ_È_ËÂÌÚ_357"/><linearGradient id="_ÂÁ_Ï_ÌÌ_È_ËÂÌÚ_349-18" x1="9002.81" y1="397.12" x2="8942.15" y2="386.8" gradientTransform="matrix(-1, 0, 0, 1, 9875.1, 0)" xlink:href="#_ÂÁ_Ï_ÌÌ_È_ËÂÌÚ_349"/><linearGradient id="_ÂÁ_Ï_ÌÌ_È_ËÂÌÚ_357-12" x1="8961.6" y1="405.18" x2="8929.16" y2="395.08" gradientTransform="matrix(-1, 0, 0, 1, 9875.1, 0)" xlink:href="#_ÂÁ_Ï_ÌÌ_È_ËÂÌÚ_357"/><linearGradient id="_ÂÁ_Ï_ÌÌ_È_ËÂÌÚ_349-19" x1="9040.65" y1="402.11" x2="9097.9" y2="402.11" gradientTransform="matrix(-1, 0, 0, 1, 9875.1, 0)" xlink:href="#_ÂÁ_Ï_ÌÌ_È_ËÂÌÚ_349"/><linearGradient id="_ÂÁ_Ï_ÌÌ_È_ËÂÌÚ_3-16" x1="2386.93" y1="425.84" x2="2561.2" y2="451.16" gradientTransform="translate(2703.3 -1796.61) rotate(94.54)" xlink:href="#_ÂÁ_Ï_ÌÌ_È_ËÂÌÚ_3"/><linearGradient id="_ÂÁ_Ï_ÌÌ_È_ËÂÌÚ_21-4" x1="1925.54" y1="576.8" x2="2019.28" y2="576.8" xlink:href="#_ÂÁ_Ï_ÌÌ_È_ËÂÌÚ_21"/><linearGradient id="_ÂÁ_Ï_ÌÌ_È_ËÂÌÚ_21-5" x1="1893.66" y1="347.46" x2="1893.66" y2="557.92" xlink:href="#_ÂÁ_Ï_ÌÌ_È_ËÂÌÚ_21"/><linearGradient id="_ÂÁ_Ï_ÌÌ_È_ËÂÌÚ_21-6" x1="1825.57" y1="190.93" x2="1825.57" y2="392.54" xlink:href="#_ÂÁ_Ï_ÌÌ_È_ËÂÌÚ_21"/><linearGradient id="_ÂÁ_Ï_ÌÌ_È_ËÂÌÚ_3-17" x1="1771.07" y1="600.04" x2="2090.21" y2="614.88" xlink:href="#_ÂÁ_Ï_ÌÌ_È_ËÂÌÚ_3"/><linearGradient id="_ÂÁ_Ï_ÌÌ_È_ËÂÌÚ_40-11" x1="1722.09" y1="591.39" x2="1764.21" y2="591.39" xlink:href="#_ÂÁ_Ï_ÌÌ_È_ËÂÌÚ_40"/><linearGradient id="_ÂÁ_Ï_ÌÌ_È_ËÂÌÚ_349-20" x1="1480.08" y1="740.6" x2="2032.78" y2="1041.11" xlink:href="#_ÂÁ_Ï_ÌÌ_È_ËÂÌÚ_349"/><linearGradient id="_ÂÁ_Ï_ÌÌ_È_ËÂÌÚ_40-12" x1="1743.15" y1="1011.21" x2="1743.15" y2="1057.94" xlink:href="#_ÂÁ_Ï_ÌÌ_È_ËÂÌÚ_40"/><linearGradient id="_ÂÁ_Ï_ÌÌ_È_ËÂÌÚ_47-2" x1="1946.52" y1="866.25" x2="2124.79" y2="937.49" xlink:href="#_ÂÁ_Ï_ÌÌ_È_ËÂÌÚ_47"/><linearGradient id="_ÂÁ_Ï_ÌÌ_È_ËÂÌÚ_357-13" x1="1875.24" y1="737.71" x2="2075.42" y2="737.71" gradientTransform="matrix(0.99, 0.14, -0.14, 0.77, 303.7, 74.45)" xlink:href="#_ÂÁ_Ï_ÌÌ_È_ËÂÌÚ_357"/><linearGradient id="_ÂÁ_Ï_ÌÌ_È_ËÂÌÚ_357-14" x1="2096.08" y1="908.88" x2="2111.21" y2="903" xlink:href="#_ÂÁ_Ï_ÌÌ_È_ËÂÌÚ_357"/><linearGradient id="_ÂÁ_Ï_ÌÌ_È_ËÂÌÚ_3-18" x1="1103.81" y1="541.98" x2="2400.59" y2="541.98" gradientTransform="matrix(1, 0.03, -0.03, 1, 9.41, -12.51)" xlink:href="#_ÂÁ_Ï_ÌÌ_È_ËÂÌÚ_3"/><linearGradient id="_ÂÁ_Ï_ÌÌ_È_ËÂÌÚ_3-19" x1="186.24" y1="254.21" x2="1355.05" y2="902.91" xlink:href="#_ÂÁ_Ï_ÌÌ_È_ËÂÌÚ_3"/><linearGradient id="_ÂÁ_Ï_ÌÌ_È_ËÂÌÚ_349-21" x1="324.98" y1="673.59" x2="1079.78" y2="673.59" xlink:href="#_ÂÁ_Ï_ÌÌ_È_ËÂÌÚ_349"/><linearGradient id="_ÂÁ_Ï_ÌÌ_È_ËÂÌÚ_21-7" x1="770.47" y1="991.59" x2="770.47" y2="445.5" xlink:href="#_ÂÁ_Ï_ÌÌ_È_ËÂÌÚ_21"/><linearGradient id="_ÂÁ_Ï_ÌÌ_È_ËÂÌÚ_349-22" x1="307.33" y1="987.37" x2="1233.6" y2="987.37" xlink:href="#_ÂÁ_Ï_ÌÌ_È_ËÂÌÚ_349"/><linearGradient id="_ÂÁ_Ï_ÌÌ_È_ËÂÌÚ_357-15" x1="659.44" y1="966.63" x2="881.49" y2="966.63" xlink:href="#_ÂÁ_Ï_ÌÌ_È_ËÂÌÚ_357"/><linearGradient id="_ÂÁ_Ï_ÌÌ_È_ËÂÌÚ_379-7" x1="779.64" y1="717.75" x2="601.54" y2="774.29" xlink:href="#_ÂÁ_Ï_ÌÌ_È_ËÂÌÚ_379"/><linearGradient id="_ÂÁ_Ï_ÌÌ_È_ËÂÌÚ_3-20" x1="683.54" y1="782.18" x2="493.96" y2="769.33" xlink:href="#_ÂÁ_Ï_ÌÌ_È_ËÂÌÚ_3"/><linearGradient id="_ÂÁ_Ï_ÌÌ_È_ËÂÌÚ_384" x1="660.28" y1="804.29" x2="438.75" y2="772.64" gradientUnits="userSpaceOnUse"><stop offset="0" stop-color="#e5938d"/><stop offset="1" stop-color="#db7b76"/></linearGradient><linearGradient id="_ÂÁ_Ï_ÌÌ_È_ËÂÌÚ_379-8" x1="528.43" y1="811.56" x2="436.54" y2="787.53" xlink:href="#_ÂÁ_Ï_ÌÌ_È_ËÂÌÚ_379"/><linearGradient id="_ÂÁ_Ï_ÌÌ_È_ËÂÌÚ_21-8" x1="595.57" y1="340.51" x2="459.82" y2="437.67" xlink:href="#_ÂÁ_Ï_ÌÌ_È_ËÂÌÚ_21"/><linearGradient id="_ÂÁ_Ï_ÌÌ_È_ËÂÌÚ_21-9" x1="525.6" y1="381.5" x2="441.3" y2="257.19" xlink:href="#_ÂÁ_Ï_ÌÌ_È_ËÂÌÚ_21"/><linearGradient id="_ÂÁ_Ï_ÌÌ_È_ËÂÌÚ_21-10" x1="506.6" y1="348.96" x2="410.87" y2="215.36" gradientTransform="translate(336.41 -242.32) rotate(45)" xlink:href="#_ÂÁ_Ï_ÌÌ_È_ËÂÌÚ_21"/><linearGradient id="_ÂÁ_Ï_ÌÌ_È_ËÂÌÚ_40-13" x1="926.67" y1="554.44" x2="945.28" y2="554.44" xlink:href="#_ÂÁ_Ï_ÌÌ_È_ËÂÌÚ_40"/><linearGradient id="_ÂÁ_Ï_ÌÌ_È_ËÂÌÚ_349-23" x1="819.34" y1="624.89" x2="1065.33" y2="758.64" xlink:href="#_ÂÁ_Ï_ÌÌ_È_ËÂÌÚ_349"/><linearGradient id="_ÂÁ_Ï_ÌÌ_È_ËÂÌÚ_40-14" x1="935.98" y1="747.94" x2="935.98" y2="769.48" xlink:href="#_ÂÁ_Ï_ÌÌ_È_ËÂÌÚ_40"/><linearGradient id="_ÂÁ_Ï_ÌÌ_È_ËÂÌÚ_357-16" x1="8205.1" y1="941.64" x2="8161.9" y2="937.13" gradientTransform="matrix(-1, 0, 0, 1, 9835.48, -75.27)" xlink:href="#_ÂÁ_Ï_ÌÌ_È_ËÂÌÚ_357"/><linearGradient id="_ÂÁ_Ï_ÌÌ_È_ËÂÌÚ_357-17" x1="1728.45" y1="927.5" x2="1780.05" y2="911.68" xlink:href="#_ÂÁ_Ï_ÌÌ_È_ËÂÌÚ_357"/><linearGradient id="_ÂÁ_Ï_ÌÌ_È_ËÂÌÚ_379-9" x1="1686.99" y1="782.6" x2="1732.79" y2="801.28" xlink:href="#_ÂÁ_Ï_ÌÌ_È_ËÂÌÚ_379"/><linearGradient id="_ÂÁ_Ï_ÌÌ_È_ËÂÌÚ_384-2" x1="1710.98" y1="807.38" x2="1781.08" y2="797.15" xlink:href="#_ÂÁ_Ï_ÌÌ_È_ËÂÌÚ_384"/><linearGradient id="_ÂÁ_Ï_ÌÌ_È_ËÂÌÚ_379-10" x1="1757.27" y1="813.96" x2="1788.18" y2="803.73" xlink:href="#_ÂÁ_Ï_ÌÌ_È_ËÂÌÚ_379"/><linearGradient id="_ÂÁ_Ï_ÌÌ_È_ËÂÌÚ_21-11" x1="12101.1" y1="844.15" x2="12062.57" y2="871.73" gradientTransform="matrix(-1, -0.03, -0.03, 1, 13857.66, 226.64)" xlink:href="#_ÂÁ_Ï_ÌÌ_È_ËÂÌÚ_21"/><linearGradient id="_ÂÁ_Ï_ÌÌ_È_ËÂÌÚ_21-12" x1="12081.24" y1="855.79" x2="12057.32" y2="820.5" gradientTransform="matrix(-1, -0.03, -0.03, 1, 13857.66, 226.64)" xlink:href="#_ÂÁ_Ï_ÌÌ_È_ËÂÌÚ_21"/><linearGradient id="_ÂÁ_Ï_ÌÌ_È_ËÂÌÚ_21-13" x1="12075.85" y1="846.55" x2="12048.68" y2="808.63" gradientTransform="matrix(-1, -0.03, -0.03, 1, 13857.66, 226.64)" xlink:href="#_ÂÁ_Ï_ÌÌ_È_ËÂÌÚ_21"/><linearGradient id="_ÂÁ_Ï_ÌÌ_È_ËÂÌÚ_384-3" x1="1711.83" y1="1774.54" x2="1806.25" y2="1774.54" gradientTransform="translate(-154.77 -981.66)" xlink:href="#_ÂÁ_Ï_ÌÌ_È_ËÂÌÚ_384"/><linearGradient id="_ÂÁ_Ï_ÌÌ_È_ËÂÌÚ_379-11" x1="1709.36" y1="1675.36" x2="1809.41" y2="1675.36" gradientTransform="matrix(0, 1, -1, 0, 3293.14, -1057.91)" xlink:href="#_ÂÁ_Ï_ÌÌ_È_ËÂÌÚ_379"/><linearGradient id="_ÂÁ_Ï_ÌÌ_È_ËÂÌÚ_379-12" x1="1709.36" y1="1793.98" x2="1809.41" y2="1793.98" gradientTransform="matrix(0.98, 0.19, -0.19, 0.98, 217.96, -1284.91)" xlink:href="#_ÂÁ_Ï_ÌÌ_È_ËÂÌÚ_379"/><linearGradient id="_ÂÁ_Ï_ÌÌ_È_ËÂÌÚ_384-4" x1="1709.36" y1="1785.47" x2="1809.41" y2="1785.47" gradientTransform="matrix(0, 1, -1, 0, 3382.14, -949.84)" xlink:href="#_ÂÁ_Ï_ÌÌ_È_ËÂÌÚ_384"/><linearGradient id="_ÂÁ_Ï_ÌÌ_È_ËÂÌÚ_384-5" x1="1730.59" y1="1656.1" x2="1744.22" y2="1656.1" gradientTransform="matrix(0.98, 0.19, -0.19, 0.98, 217.96, -1284.91)" xlink:href="#_ÂÁ_Ï_ÌÌ_È_ËÂÌÚ_384"/><linearGradient id="_ÂÁ_Ï_ÌÌ_È_ËÂÌÚ_384-6" x1="1747.38" y1="1656.1" x2="1761.02" y2="1656.1" gradientTransform="matrix(0.98, 0.19, -0.19, 0.98, 217.96, -1284.91)" xlink:href="#_ÂÁ_Ï_ÌÌ_È_ËÂÌÚ_384"/><linearGradient id="_ÂÁ_Ï_ÌÌ_È_ËÂÌÚ_384-7" x1="1764.18" y1="1656.11" x2="1777.82" y2="1656.11" gradientTransform="matrix(0.98, 0.19, -0.19, 0.98, 217.96, -1284.91)" xlink:href="#_ÂÁ_Ï_ÌÌ_È_ËÂÌÚ_384"/><linearGradient id="_ÂÁ_Ï_ÌÌ_È_ËÂÌÚ_357-18" x1="2554.47" y1="494.3" x2="2527.08" y2="517.26" xlink:href="#_ÂÁ_Ï_ÌÌ_È_ËÂÌÚ_357"/><linearGradient id="_ÂÁ_Ï_ÌÌ_È_ËÂÌÚ_357-19" x1="2547.07" y1="500.49" x2="2457.91" y2="519.82" xlink:href="#_ÂÁ_Ï_ÌÌ_È_ËÂÌÚ_357"/><linearGradient id="_ÂÁ_Ï_ÌÌ_È_ËÂÌÚ_357-20" x1="2234.77" y1="-2754.69" x2="2248.76" y2="-2738.65" gradientTransform="matrix(-0.93, -0.38, -0.38, 0.93, 3507.21, 3833.35)" xlink:href="#_ÂÁ_Ï_ÌÌ_È_ËÂÌÚ_357"/><linearGradient id="_ÂÁ_Ï_ÌÌ_È_ËÂÌÚ_379-13" x1="1598.2" y1="442.67" x2="1661.15" y2="442.67" gradientTransform="matrix(-1, 0, 0, 1, 4089.05, 0)" xlink:href="#_ÂÁ_Ï_ÌÌ_È_ËÂÌÚ_379"/><linearGradient id="_ÂÁ_Ï_ÌÌ_È_ËÂÌÚ_349-24" x1="2487.12" y1="456.83" x2="2426.69" y2="441.79" xlink:href="#_ÂÁ_Ï_ÌÌ_È_ËÂÌÚ_349"/><linearGradient id="_ÂÁ_Ï_ÌÌ_È_ËÂÌÚ_40-15" x1="-273.91" y1="-499.84" x2="-348.71" y2="-517.7" gradientTransform="translate(2735.94 -258.26) rotate(-139.58)" xlink:href="#_ÂÁ_Ï_ÌÌ_È_ËÂÌÚ_40"/><linearGradient id="_ÂÁ_Ï_ÌÌ_È_ËÂÌÚ_40-16" x1="-284.15" y1="-502.5" x2="-338.86" y2="-515.57" gradientTransform="translate(2735.94 -258.26) rotate(-139.58)" xlink:href="#_ÂÁ_Ï_ÌÌ_È_ËÂÌÚ_40"/><linearGradient id="_ÂÁ_Ï_ÌÌ_È_ËÂÌÚ_40-17" x1="-294.34" y1="-505.09" x2="-335.44" y2="-514.9" gradientTransform="translate(2735.94 -258.26) rotate(-139.58)" xlink:href="#_ÂÁ_Ï_ÌÌ_È_ËÂÌÚ_40"/><linearGradient id="_ÂÁ_Ï_ÌÌ_È_ËÂÌÚ_40-18" x1="-299.4" y1="-506.34" x2="-335.43" y2="-514.95" gradientTransform="translate(2735.94 -258.26) rotate(-139.58)" xlink:href="#_ÂÁ_Ï_ÌÌ_È_ËÂÌÚ_40"/><linearGradient id="_ÂÁ_Ï_ÌÌ_È_ËÂÌÚ_40-19" x1="2892.96" y1="63.36" x2="2903.62" y2="63.36" gradientTransform="translate(5467.44 490.16) rotate(-180)" xlink:href="#_ÂÁ_Ï_ÌÌ_È_ËÂÌÚ_40"/><linearGradient id="_ÂÁ_Ï_ÌÌ_È_ËÂÌÚ_379-14" x1="2883.18" y1="144.86" x2="2913.59" y2="144.86" gradientTransform="translate(404.32 -1500.54) rotate(40.42)" xlink:href="#_ÂÁ_Ï_ÌÌ_È_ËÂÌÚ_379"/><linearGradient id="_ÂÁ_Ï_ÌÌ_È_ËÂÌÚ_357-21" x1="2301.57" y1="-2880.71" x2="2323.71" y2="-2865.62" gradientTransform="matrix(-0.91, -0.42, -0.42, 0.91, 3359.31, 4025.47)" xlink:href="#_ÂÁ_Ï_ÌÌ_È_ËÂÌÚ_357"/></defs><g id="foliage"><path class="cls-1" d="M1321.06,874.18c34.45-5.33,96.23-24.71,117.8-58.33,19.91-31-9.06-70,5.23-100.14s103.12-52.06,126.41-87.09c27.63-41.54-39.61-75.59-9.68-104.42s133.14-61.65,141.25-96.36-33.48-33.85,1.7-98.21c29.79-54.5,69.75-126,31.6-156.14-40.66-32.13-89.18,24-114.46,68-32.57,56.63-66.39-3.48-103.7,22.82-33.73,23.77-29.46,154.65-55.08,180.52s-75.34,6.14-110.73,51.07,16,115.28-2.21,149-70.66,20.58-96.8,68.51S1321.06,874.18,1321.06,874.18Z" transform="translate(-68.09 -75.27)"/><path class="cls-2" d="M1799.59,825.76s196.15-189.38,288-334.76,93-241.32,93-241.32-39,68.79-104.38,137.2-144.37,123.87-201,203C1789.65,709.62,1799.59,825.76,1799.59,825.76Z" transform="translate(-68.09 -75.27)"/><path class="cls-3" d="M70.35,703.59C43.77,809.5,260.53,868.15,259.57,889s-112.37,3.09-91.72,60.4C187,1002.5,360.74,1029,490.24,973.67c3.75-1.6,99.48-155.76,36.3-250s-88.37,63.35-119,58.22,43.29-197.23-18.08-240.92c-63.59-45.27-88.4,93.52-118.16,71.09-28.19-21.25-36.64-219.89-117.14-196.92a63.14,63.14,0,0,0-9,3.39l0,0h0c-1.65.76-3.32,1.6-5,2.54-93.71,51.55,74.41,266.18,34.24,272.85S83.82,649.91,70.35,703.59Z" transform="translate(-68.09 -75.27)"/></g><g id="main"><rect class="cls-4" x="2019.74" y="438.69" width="431.67" height="542.75" rx="19.43"/><path class="cls-5" d="M2494.63,1002.67V547.84c0-9.81-9.07-17.76-20.25-17.76H2132.94c-11.18,0-20.25,7.95-20.25,17.76v454.83c0,9.81,9.07,17.76,20.25,17.76h341.44C2485.56,1020.43,2494.63,1012.48,2494.63,1002.67Z" transform="translate(-68.09 -75.27)"/><rect class="cls-6" x="2088" y="700.37" width="295.14" height="12.18"/><rect class="cls-7" x="2088" y="751.65" width="295.14" height="12.18"/><rect class="cls-8" x="2088" y="649.09" width="295.14" height="12.18"/><rect class="cls-9" x="2088" y="597.82" width="295.14" height="12.18"/><rect class="cls-10" x="2088" y="802.92" width="295.14" height="12.18"/><rect class="cls-11" x="2088" y="854.2" width="295.14" height="12.18"/><path class="cls-12" d="M2402.11,497.79h-44.86v-2.63a27.62,27.62,0,0,0-27.62-27.62h-51.94a27.62,27.62,0,0,0-27.62,27.62v2.63h-44.86a9.48,9.48,0,0,0-9.47,9.48v42.09a9.47,9.47,0,0,0,9.47,9.48h196.9a9.47,9.47,0,0,0,9.47-9.48V507.27A9.48,9.48,0,0,0,2402.11,497.79Zm-90.34-1.19h-16.22a9.2,9.2,0,0,1,0-18.4h16.22a9.2,9.2,0,0,1,0,18.4Z" transform="translate(-68.09 -75.27)"/><path class="cls-13" d="M2175.59,615.14v19.44H2164v-49h21.56a27.39,27.39,0,0,1,9.57,1.38,12.3,12.3,0,0,1,6,5.08,14.94,14.94,0,0,1,2.37,8.22q0,8.84-8.51,12.68l9.05,21.68h-12.69l-7.53-19.44Zm0-20.87v12.5h7a18.69,18.69,0,0,0,5-.48,5.64,5.64,0,0,0,2.79-2.16,6.34,6.34,0,0,0,1.22-3.83,6,6,0,0,0-1.22-3.66,5,5,0,0,0-2.66-2,24.56,24.56,0,0,0-5.39-.38Z" transform="translate(-68.09 -75.27)"/><path class="cls-14" d="M2247.4,594.88h-23.35v10.06h18.36v9.23h-18.36v10.71h23.35v9.7h-35v-49h35Z" transform="translate(-68.09 -75.27)"/><path class="cls-15" d="M2293.85,603.79l-12,.75q-.26-10.38-8.1-10.38-9,0-9,16,0,9.23,2.45,12.52A8,8,0,0,0,2274,626q7.13,0,8.71-9.26l11.13.68q-1.08,8.8-6.55,13.38a20.26,20.26,0,0,1-13.42,4.58q-9.74,0-15.83-6.72T2252,610q0-11.1,5.89-18.18t16.09-7.08Q2291.62,584.78,2293.85,603.79Z" transform="translate(-68.09 -75.27)"/><path class="cls-16" d="M2311.92,585.54v49h-11.46v-49Z" transform="translate(-68.09 -75.27)"/><path class="cls-17" d="M2333.44,616.36v18.22h-11.67v-49h19.32q6.47,0,9.9,1.38a14.62,14.62,0,0,1,6.13,4.94,14.07,14.07,0,0,1,2.69,8.73,18.22,18.22,0,0,1-1.44,7.08,12.69,12.69,0,0,1-4.06,5.42,15,15,0,0,1-5.08,2.63,33.31,33.31,0,0,1-7.71.64Zm-.39-8.91h7.47q4.28,0,6-2a6.69,6.69,0,0,0,1.72-4.53,6.11,6.11,0,0,0-1.92-4.74q-1.92-1.76-5.84-1.76h-7.43Z" transform="translate(-68.09 -75.27)"/><path class="cls-18" d="M2401.19,594.88h-23.35v10.06h18.36v9.23h-18.36v10.71h23.35v9.7h-35v-49h35Z" transform="translate(-68.09 -75.27)"/><path class="cls-19" d="M2442,596.32l-9.77,3.27q-2-5.82-8.35-5.82-6.81,0-6.81,4.41a4,4,0,0,0,1.27,3q1.28,1.22,5.76,2.12a57.31,57.31,0,0,1,11,3.06,14.05,14.05,0,0,1,5.86,5,13.13,13.13,0,0,1,2.39,7.67,15.31,15.31,0,0,1-5.12,11.49q-5.11,4.85-15.16,4.85a23.05,23.05,0,0,1-12.83-3.43,16.28,16.28,0,0,1-7-10.19l10.63-2.4q1.78,6.86,10,6.86c2.63,0,4.58-.51,5.88-1.53a4.5,4.5,0,0,0,1.93-3.64,3.78,3.78,0,0,0-1.76-3.34c-1.17-.79-3.43-1.54-6.78-2.23q-9.36-1.95-13.34-5.3t-4-9.83a14.58,14.58,0,0,1,4.75-11q4.75-4.49,12.9-4.49Q2437.84,584.78,2442,596.32Z" transform="translate(-68.09 -75.27)"/><path class="cls-20" d="M2410.3,495.15,2468,1072.1a7.21,7.21,0,0,0,7.17,6.49l.73,0a7.22,7.22,0,0,0,6.46-7.9l-11.59-115.88h135.61l11.73,117.32a7.21,7.21,0,0,0,7.17,6.49l.72,0a7.21,7.21,0,0,0,6.46-7.9l-57.7-576.94a7.21,7.21,0,1,0-14.35,1.43l5.8,58H2430.59l-5.94-59.4a7.21,7.21,0,0,0-14.35,1.43Zm157.35,72.4,8.24,82.38H2440.28L2432,567.55ZM2450,746.74l-8.24-82.38h135.61l8.24,82.38ZM2587,761.16l8.24,82.39H2459.64l-8.24-82.39ZM2469.32,940.35,2461.08,858h135.61l8.24,82.38Z" transform="translate(-68.09 -75.27)"/><rect class="cls-21" x="2443.07" y="817.87" width="54.86" height="148.03"/><rect class="cls-22" x="2435.48" y="788.41" width="70.05" height="37.85" rx="6.57"/><rect class="cls-23" x="2435.48" y="834.44" width="70.05" height="148.03" rx="6.57"/><rect class="cls-24" x="2435.48" y="868.51" width="70.05" height="65.37"/><path class="cls-25" d="M2529.05,866.18c0,.77-2.14,1.38-4.77,1.38s-4.78-.61-4.78-1.38,2.14-1.38,4.78-1.38S2529.05,865.42,2529.05,866.18Z" transform="translate(-68.09 -75.27)"/><ellipse class="cls-26" cx="2470.51" cy="790.91" rx="4.77" ry="1.38"/><path class="cls-27" d="M2557.69,866.18c0,.77-2.14,1.38-4.77,1.38s-4.78-.61-4.78-1.38,2.14-1.38,4.78-1.38S2557.69,865.42,2557.69,866.18Z" transform="translate(-68.09 -75.27)"/><path class="cls-28" d="M2495.52,957.82c3.89,28.4-6,51.24-20.61,67s-34.26,24.41-53.22,24.46-38.5-8.51-53.35-24.18-24.71-38.45-21-66.87c2.54-23.49,12.41-52,21.69-77.45,6.89-18,13.41-34.46,21.82-46.41s18.48-19.39,30.18-19.42c20.45-.05,34.55,21.48,46.32,50.11,6,14.32,11.65,30.42,16.94,46.48S2494.26,943.62,2495.52,957.82Z" transform="translate(-68.09 -75.27)"/><path class="cls-29" d="M2480.59,954.48c3.11,24.69-4.78,44.55-16.45,58.24s-27.35,21.22-42.49,21.26-30.74-7.41-42.61-21-19.73-33.45-16.75-58.15c2-20.43,9.9-45.25,17.3-67.34,5.5-15.67,10.7-30,17.41-40.34s14.76-16.86,24.11-16.89c16.32,0,27.58,18.68,37,43.58,4.77,12.46,9.3,26.45,13.53,40.42S2479.58,942.13,2480.59,954.48Z" transform="translate(-68.09 -75.27)"/><path class="cls-30" d="M2460.36,966.16c.06,24.8-17.29,44.94-38.77,45s-38.94-20-39-44.79,17.27-52.59,38.75-52.65S2460.29,941.37,2460.36,966.16Z" transform="translate(-68.09 -75.27)"/><rect class="cls-31" x="2479.55" y="924.04" width="64.79" height="64.79" rx="13"/><path class="cls-32" d="M595,227.88H574.65A53.7,53.7,0,0,0,521,281.52V301.1h35.57V281.52a18.08,18.08,0,0,1,18.07-18.07H595a18.08,18.08,0,0,1,18.07,18.07V301.1h35.57V281.52A53.7,53.7,0,0,0,595,227.88Z" transform="translate(-68.09 -75.27)"/><path class="cls-33" d="M832.5,359.24H337.13A19.12,19.12,0,0,0,318,378.36V687a83.15,83.15,0,0,0,83.15,83.15H768.47A83.15,83.15,0,0,0,851.62,687V378.36A19.12,19.12,0,0,0,832.5,359.24Z" transform="translate(-68.09 -75.27)"/><path class="cls-34" d="M818.86,296.1H350.77a43.44,43.44,0,0,0-43.44,43.44h0a17.06,17.06,0,0,0,17.06,17H845.24a17.05,17.05,0,0,0,17-17h0A43.43,43.43,0,0,0,818.86,296.1Z" transform="translate(-68.09 -75.27)"/><path class="cls-35" d="M845.24,359.24H324.39a17.06,17.06,0,0,0-17.06,17.06h0a18.53,18.53,0,0,0,18.52,18.52H843.78a18.52,18.52,0,0,0,18.51-18.52h0A17.05,17.05,0,0,0,845.24,359.24Z" transform="translate(-68.09 -75.27)"/><rect class="cls-36" x="1374.96" y="556.54" width="15.57" height="151.59" transform="translate(2291.45 1722.27) rotate(-154.55)"/><path class="cls-37" d="M1303.74,788.92l7.31,3.48a16.14,16.14,0,0,0,21.54-7.72l45.7-97.39a6.75,6.75,0,0,0-3.21-8.95l-23.21-11a6.73,6.73,0,0,0-9,3.15l-46.76,96.88A16.14,16.14,0,0,0,1303.74,788.92Zm10.07-33.29a9.27,9.27,0,0,1,12.34-4.38h0a9.27,9.27,0,0,1,4.38,12.34l-3.36,7a9.24,9.24,0,0,1-12.33,4.38h0a9.24,9.24,0,0,1-4.38-12.33Z" transform="translate(-68.09 -75.27)"/><path class="cls-38" d="M1391,489.89c17-35.75,59.49-69,86.29-56.24s27.78,66.68,10.76,102.44-48.06,45-74.86,32.23S1374,525.65,1391,489.89Z" transform="translate(-68.09 -75.27)"/><path class="cls-39" d="M1401.61,492.06c13.7-28.77,47.87-55.52,69.44-45.26s22.35,53.66,8.66,82.43-38.67,36.2-60.24,25.94S1387.92,520.83,1401.61,492.06Z" transform="translate(-68.09 -75.27)"/><path class="cls-40" d="M386.15,824.06c18.75,26,21,53.8,14.78,77-6.34,23.32-21.07,42.12-39.79,52.11s-42.52,11.8-65.43,4.1c-22.76-7.78-44.61-25.06-55.83-55.12-9.82-24.56-15-58-19.19-88-2.66-21.43-4.84-41.11-2.79-57.34s8.1-28.87,19.65-35c20.19-10.79,45.42,3.1,72.1,25.24,13.41,11,27.47,24,41.13,37.06S377.46,810.68,386.15,824.06Z" transform="translate(-68.09 -75.27)"/><path class="cls-41" d="M369.63,828.59c16,22.78,18.66,46.55,14.31,66.21S368,930.13,353.08,938.12s-34.28,8.81-53.16,1.56S262.85,917,252.84,891c-8.73-21.26-14-49.93-18.23-75.65-2.79-18.38-5.15-35.24-4-49s5.74-24.42,15-29.34c16.12-8.61,37.08,4,59.45,23.67,11.25,9.81,23.07,21.27,34.58,32.86S362.16,816.91,369.63,828.59Z" transform="translate(-68.09 -75.27)"/><path class="cls-42" d="M355.76,850.76c13.08,24.47,6.49,53.5-14.72,64.83s-49,.66-62.07-23.82-10.52-61.06,10.68-72.38S342.68,826.28,355.76,850.76Z" transform="translate(-68.09 -75.27)"/><path class="cls-43" d="M462.14,858.35c4.36,31.79-6.71,57.35-23.07,75-16.53,17.63-38.35,27.32-59.57,27.38s-43.09-9.52-59.72-27.06c-16.45-17.54-27.66-43-23.47-74.86,2.84-26.3,13.89-58.25,24.28-86.69,7.7-20.17,15-38.58,24.42-52s20.69-21.7,33.79-21.74c22.88-.06,38.66,24,51.84,56.1,6.69,16,13,34,19,52S460.73,842.46,462.14,858.35Z" transform="translate(-68.09 -75.27)"/><path class="cls-44" d="M445.42,854.61c3.49,27.64-5.34,49.86-18.4,65.19s-30.62,23.75-47.57,23.79S345,935.3,331.76,920.05,309.67,882.62,313,855c2.26-22.86,11.08-50.65,19.37-75.37,6.15-17.54,12-33.54,19.49-45.16s16.52-18.87,27-18.9c18.28,0,30.88,20.91,41.41,48.78,5.34,13.94,10.42,29.6,15.15,45.24S444.3,840.79,445.42,854.61Z" transform="translate(-68.09 -75.27)"/><path class="cls-45" d="M422.78,867.68c.07,27.76-19.35,50.31-43.39,50.37s-43.59-22.38-43.67-50.13,19.33-58.87,43.37-58.94S422.71,839.93,422.78,867.68Z" transform="translate(-68.09 -75.27)"/><rect class="cls-46" x="1234.66" y="433.42" width="15.57" height="151.59" transform="translate(2409.59 960.41) rotate(-179.2)"/><path class="cls-47" d="M1200,424.3l15,10.59a13.6,13.6,0,0,0,7.64,2.49l41.65.58a13.65,13.65,0,0,0,7.72-2.27l15.29-10.18a21.37,21.37,0,0,0,9.53-17.85l-.34-102.33a17.87,17.87,0,0,0-17.63-17.81l-66.59-.93a17.88,17.88,0,0,0-18.12,17.32l-3.19,102.27A21.39,21.39,0,0,0,1200,424.3Zm66.39-102.39a9.31,9.31,0,0,1,9.87-9.15,9.46,9.46,0,0,1,8.71,9.66c-.17,12.64-.65,47.12-.83,59.76a9.46,9.46,0,0,1-9,9.42,9.29,9.29,0,0,1-9.61-9.42Zm-30.59-.43a9.3,9.3,0,0,1,9.42-9.16h0a9.29,9.29,0,0,1,9.17,9.42l-1,73.16a9.47,9.47,0,0,1-9,9.42,9.3,9.3,0,0,1-9.61-9.42Zm-30.59-.42a9.31,9.31,0,0,1,9.87-9.15,9.46,9.46,0,0,1,8.71,9.66c-.18,12.64-.66,47.12-.83,59.76a9.47,9.47,0,0,1-9,9.42,9.31,9.31,0,0,1-9.61-9.42Z" transform="translate(-68.09 -75.27)"/><path class="cls-48" d="M1236,684.48l8.09.12a16.15,16.15,0,0,0,16.36-16l.91-107.57a6.74,6.74,0,0,0-6.65-6.8l-25.7-.36a6.75,6.75,0,0,0-6.84,6.61L1220.05,668A16.12,16.12,0,0,0,1236,684.48ZM1231.23,650a9.26,9.26,0,0,1,9.38-9.13h0a9.27,9.27,0,0,1,9.13,9.39l-.11,7.8a9.26,9.26,0,0,1-9.39,9.13h0a9.26,9.26,0,0,1-9.12-9.39Z" transform="translate(-68.09 -75.27)"/><path class="cls-49" d="M1380.24,306.87c27.7,6.33,44,38.89,36.27,72.58-7.44,32.51-74.63,115.2-77.49,118.7a2.74,2.74,0,0,1-4.8-1.1c-1-4.39-25.62-108.07-18.18-140.58C1323.74,322.78,1352.54,300.53,1380.24,306.87ZM1338.3,490.28c14.2-17.82,66.65-84.93,72.85-112.06,7-30.73-7.39-60.34-32.13-66s-50.6,14.74-57.63,45.47C1315.19,384.83,1333.25,468.06,1338.3,490.28Z" transform="translate(-68.09 -75.27)"/><path class="cls-50" d="M1380.24,306.87c9.66,2.2,17.11,10.82,21,24.25,3.71,12.87,3.73,28.8.06,44.85-7.39,32.32-59.82,118.24-62,121.88a2.75,2.75,0,0,1-5.08-1.16c-.43-4.25-10.3-104.42-2.91-136.74,3.67-16.05,10.62-30.38,19.55-40.36C1360.13,309.18,1370.59,304.66,1380.24,306.87Zm-41.38,181c13-21.71,51.09-86.93,57.07-113.09,3.47-15.16,3.47-30.11,0-42.1-3.29-11.42-9.3-18.67-16.92-20.42s-16.19,2.18-24.12,11c-8.33,9.29-14.82,22.76-18.29,37.91C1330.63,387.34,1336.61,462.64,1338.86,487.83Z" transform="translate(-68.09 -75.27)"/><path class="cls-51" d="M1380.24,306.87c12.07,2.75,11.35,34.93,4.41,65.29-7.35,32.11-43.67,121.5-45.21,125.29a2.75,2.75,0,0,1-5.29-1.21c.26-4.08,6.4-100.38,13.75-132.49C1354.84,333.4,1368.18,304.11,1380.24,306.87Zm-39.41,172.31c11.11-28,33.08-84.72,38.46-108.25,7.78-34,5-57.49-.27-58.71S1361,331,1353.25,365C1347.87,388.5,1343,449.13,1340.83,479.18Z" transform="translate(-68.09 -75.27)"/><path class="cls-52" d="M1380.24,306.87a2.74,2.74,0,0,1,2.07,3.29L1339.57,497a2.75,2.75,0,1,1-5.36-1.23L1377,308.93A2.74,2.74,0,0,1,1380.24,306.87Z" transform="translate(-68.09 -75.27)"/><rect class="cls-53" x="1314.7" y="483.6" width="15.57" height="151.59" transform="translate(2418.89 1324.27) rotate(-167.12)"/><path class="cls-54" d="M1279.46,729.41l7.89,1.81A16.13,16.13,0,0,0,1306.69,719l23.41-105a6.74,6.74,0,0,0-5.07-8L1300,600.23a6.75,6.75,0,0,0-8.07,5L1267.34,710A16.13,16.13,0,0,0,1279.46,729.41Zm2.58-34.68a9.26,9.26,0,0,1,11.09-7h0a9.25,9.25,0,0,1,7,11.08l-1.74,7.61a9.26,9.26,0,0,1-11.09,7h0a9.26,9.26,0,0,1-7-11.09Z" transform="translate(-68.09 -75.27)"/><path class="cls-55" d="M1096.66,963.7c21.27-2.52,59.65-13.05,73.64-33.22,12.91-18.62-4-43.19,5.43-61.38s64.48-29.69,79.56-50.68c17.89-24.9-22.65-47.3-3.63-64.34s83.13-34.91,88.88-56.05-19.81-21.53,3.22-60.27c19.5-32.81,45.62-75.84,22.86-95.2-24.25-20.62-55.3,12.78-71.8,39.22-21.25,34.05-40.69-3.61-64.19,11.71-21.24,13.85-21.52,94.33-37.82,109.65s-46.4,2.1-69.14,28.91,7.3,71.15-4.66,91.47-43.84,11.08-61,39.94S1096.66,963.7,1096.66,963.7Z" transform="translate(-68.09 -75.27)"/><path class="cls-56" d="M1298.44,904c-2.21,54.31-114,51.82-116.43,61.91s53.22,17.29,35.3,41.74c-16.61,22.66-103.3,10.87-157.35-33.77-1.57-1.29-25.58-88.36,17.85-124.5s33.28,42.69,48.63,44.55,7.07-100.27,42.52-112.49c36.73-12.67,29,57.09,46.42,50.56,16.45-6.17,48.43-99.83,83.63-77.54a31.1,31.1,0,0,1,3.84,2.89h0c.68.6,1.36,1.24,2.05,1.92,37.49,37.8-73,116.63-54.74,125.47S1299.56,876.52,1298.44,904Z" transform="translate(-68.09 -75.27)"/><path class="cls-57" d="M998.14,929.42c2.72,27.8-18.64,52.63-18.64,52.63S953.73,961.83,951,934s18.64-52.63,18.64-52.63S995.42,901.63,998.14,929.42Z" transform="translate(-68.09 -75.27)"/><path class="cls-58" d="M969.65,881.4s25.77,20.23,28.49,48-18.64,52.63-18.64,52.63Z" transform="translate(-68.09 -75.27)"/><path class="cls-59" d="M1019.86,970c-18.86,17.39-48.9,15.5-48.9,15.5s.55-30.1,19.41-47.49,48.9-15.49,48.9-15.49S1038.73,952.65,1019.86,970Z" transform="translate(-68.09 -75.27)"/><path class="cls-60" d="M1039.27,922.55s-.54,30.1-19.41,47.48-48.9,15.5-48.9,15.5Z" transform="translate(-68.09 -75.27)"/><ellipse class="cls-61" cx="825.88" cy="898.14" rx="80.9" ry="75.83"/><path class="cls-62" d="M920.8,950.48c-10.71-8.3-20-15.09-28.52-22.13-12.39,5.49-22.27,12.68-25,21.12-1.8-10,5.55-19.35,15.5-26.79-11.81-5-27.06-6.23-35.14-16.74,20.69,9.07,28.58,6.44,42.72,9.24,6.16-8.43,10.56-16.7,7.17-27.28,7.1,11.09,7.51,18.58,6.23,27.34,15.16,0,28.53-5.12,44.9-.37-18.31-.48-28.51,6.86-43.4,9.59A101,101,0,0,0,920.8,950.48Z" transform="translate(-68.09 -75.27)"/><path class="cls-63" d="M881.12,904.36l8.3-8.15C892.75,899,900.21,912.57,898,921h-6.09C890.69,914.75,888.21,909.85,881.12,904.36Z" transform="translate(-68.09 -75.27)"/><rect class="cls-64" x="905.1" y="896.01" width="67.08" height="67.08" rx="13"/><rect class="cls-65" x="856.61" y="913.75" width="67.08" height="67.08" rx="13"/><circle class="cls-66" cx="995.71" cy="1063.31" r="4.81" transform="translate(-173.84 1941.37) rotate(-87.76)"/><path class="cls-67" d="M1019.61,1068.13a4,4,0,1,1-1.67-5.41A4,4,0,0,1,1019.61,1068.13Z" transform="translate(-68.09 -75.27)"/><path class="cls-68" d="M1024.78,1053.9a6.11,6.11,0,1,1-2.56-8.26A6.11,6.11,0,0,1,1024.78,1053.9Z" transform="translate(-68.09 -75.27)"/><polygon class="cls-69" points="825.07 269.39 842.25 264.66 833.21 231.8 822.71 234.69 825.07 269.39"/><path class="cls-70" d="M866.86,298.65c.81,14.29,6.7,27.3,15.65,28,8.4.67,19.64-10.3,22-25.3,2.52-15.8-3.48-25.43-15.86-26.23C875.53,274.29,866,283,866.86,298.65Z" transform="translate(-68.09 -75.27)"/><path class="cls-71" d="M890,298.13c-2.76-5.21-8.23-6.57-12.38-7s-10.86,1.38-11.68-1.61.87-14.06,17.83-17c15.35-2.61,24.94,6,28.77,17,3.35,9.62-2.29,20.68-10,19.19S893.35,304.44,890,298.13Z" transform="translate(-68.09 -75.27)"/><path class="cls-70" d="M890.8,302.73c-.37,2.54,1.05,4.85,3.17,5.15s4.13-1.5,4.5-4-1.05-4.85-3.17-5.16S891.17,300.19,890.8,302.73Z" transform="translate(-68.09 -75.27)"/><path class="cls-71" d="M884.45,257.91c-2.55,6.55,1,16.91,9.13,20.07s17.74-2.09,20.28-8.63-3.43-10.67-11.55-13.82S887,251.37,884.45,257.91Z" transform="translate(-68.09 -75.27)"/><path class="cls-69" d="M810.82,423.7c.16,3.12,5,6.71,11.66,7.2,6.13.44,10.18-3,10.21-6.2C832.76,417.65,810.59,418.87,810.82,423.7Z" transform="translate(-68.09 -75.27)"/><path class="cls-70" d="M803.67,458.22l1.24-.22,88.54-16.38L909,438.74l3.88,33.53-15.82.75-76.81,3.64,31.08,74.68,1.48,3.56-6.48,3.18-1.9-3.35-47.14-82.82a9.41,9.41,0,0,1-1.06-2.9A9.26,9.26,0,0,1,803.67,458.22Z" transform="translate(-68.09 -75.27)"/><path class="cls-70" d="M795.09,462.85l1.13-.2,98.22-18.09L910,441.7l4.05,33.3-15.81.95-91.66,5.48-5,94.61-.21,3.85-7.26,0-.23-3.85-6.2-103.76A9.08,9.08,0,0,1,795.09,462.85Z" transform="translate(-68.09 -75.27)"/><path class="cls-72" d="M881.8,433.8c-11.22,18.1-77.95,11.83-87.57,25.12-12.83,17.72,39.88,86.22,39.88,86.22l17.54-9.79s-26.87-48.45-25.79-51.93c1.38-4.42,74.61,6.05,94.43-10.68,15.39-13,7.79-38.94,7.79-38.94Z" transform="translate(-68.09 -75.27)"/><path class="cls-73" d="M887,433.8c-9.79,22.23-89.39,14-100.68,33.4-9.11,15.63.24,95,.24,95l21.06-.57s-.11-67.58,4-72.17c3-3.37,87.54,4.42,108.63-10.67,18.06-12.92,7.79-45,7.79-45Z" transform="translate(-68.09 -75.27)"/><path class="cls-69" d="M890.79,351.86l-12,68.21,5.69-4.88-49.95,3.71-4.54.34.39,8.8L835,428l50.09-.65a5.85,5.85,0,0,0,5.62-4.57l.07-.32,15-67.6,1.66-7.46-15.31-3Z" transform="translate(-68.09 -75.27)"/><path class="cls-74" d="M914.37,353.45c1.18,16.33-9.38,58.74-26,73.33-9.89,8.66-42.81,2.84-42.81,2.84l-1.6-12.85s24.63,3.71,30.25-10.6,9.18-53.4,17.51-59.36C899,341.55,913.84,346.12,914.37,353.45Z" transform="translate(-68.09 -75.27)"/><path class="cls-75" d="M906.41,338.35s-9.07,8.49-18.59,3.34c0,0-2.08,34.23-5.81,48.29s-14.82,51-14.82,51l67.91-2.21C935.9,407.59,923,372.58,906.41,338.35Z" transform="translate(-68.09 -75.27)"/><path class="cls-76" d="M909.55,335.44s34,47.49,29.12,99.48c0,0,3.12,10.08-33.75,9.9s-39.15-5.21-39.15-5.21c10.75-28.16,18.79-59.91,22.05-97.92C887.82,341.69,901.61,341.74,909.55,335.44Z" transform="translate(-68.09 -75.27)"/><path class="cls-70" d="M898.6,362.49c5,7.78,9.82,15.91,14.3,24,2.24,4.08,4.39,8.19,6.38,12.33a111.23,111.23,0,0,1,5.17,12.38c.33,1,.61,2,.87,3l.77,3.3c.48,2.24.94,4.49,1.35,6.79.83,4.57,1.56,9.21,2.23,13.86,1.32,9.31,2.46,18.72,3.42,28.07l.46,4.53,8.81-.61-.2-4.54c-.43-9.59-1-19.1-1.84-28.67-.42-4.78-.89-9.57-1.48-14.38-.3-2.41-.65-4.83-1-7.27l-.64-3.68c-.27-1.32-.58-2.64-.92-3.9a121.74,121.74,0,0,0-5.06-14.2c-1.89-4.53-3.93-8.95-6-13.32-4.24-8.74-8.7-17.18-13.53-25.67l-3.77-6.64-13.37,8.16Z" transform="translate(-68.09 -75.27)"/><path class="cls-77" d="M913.93,346.27c12.2,10.91,20.08,36.55,26,57.88s3.32,54.23,3.32,54.23l-13.39,1.18s-2.23-33.26-8.15-47.46S891.18,367.35,893,357.27C894.63,348.4,908.45,341.37,913.93,346.27Z" transform="translate(-68.09 -75.27)"/><path class="cls-70" d="M942.59,497c3-.75,5.26-8,3.95-17.23-1.22-8.47-5.74-13.42-8.86-12.91C930.71,468,937.89,498.18,942.59,497Z" transform="translate(-68.09 -75.27)"/><path class="cls-70" d="M933.62,485.31c-1.36-.21-2.58-3.77-2.3-8.5.25-4.36,2.07-7.12,3.46-7.05C937.88,469.94,935.73,485.63,933.62,485.31Z" transform="translate(-68.09 -75.27)"/><path class="cls-71" d="M766.19,583.88l5.51-1h0l20.15-7.8v.16s.25,3.45,4.43,4.1a9.19,9.19,0,0,0,5.93-.81,1,1,0,0,1,.45-.29c1.35,0,2.44,2.21,2.44,4.92a8.85,8.85,0,0,1-.33,2.45v3.77H764.63v-3.82A1.69,1.69,0,0,1,766.19,583.88Z" transform="translate(-68.09 -75.27)"/><path class="cls-71" d="M828.13,578.51l3.74-4.17h0L843,555.79l.1.13s2.32,2.57,6,.51a9.22,9.22,0,0,0,4.18-4.29.9.9,0,0,1,.18-.5c1.06-.83,3.27.23,4.94,2.37a8.76,8.76,0,0,1,1.25,2.13l2.32,3-31.63,24.71-2.36-3A1.72,1.72,0,0,1,828.13,578.51Z" transform="translate(-68.09 -75.27)"/><path class="cls-69" d="M816.39,418.11c.39-1.32,4.09-2,8.74-1.13,4.28.85,6.77,3,6.5,4.4C831,424.42,815.78,420.15,816.39,418.11Z" transform="translate(-68.09 -75.27)"/><path class="cls-78" d="M779.35,379.05h0a3.07,3.07,0,0,1,3.86,2l12,38.11h36.12a3.08,3.08,0,1,1,0,6.16H793a3.07,3.07,0,0,1-3-2.65l-12.57-39.76A3.08,3.08,0,0,1,779.35,379.05Z" transform="translate(-68.09 -75.27)"/><polygon class="cls-5" points="727.16 343.89 725.25 343.89 713.55 306.42 715.32 306.42 727.16 343.89"/><path class="cls-79" d="M1921,671.9s139.64-41.49,219-87.79,103.51-91.51,103.51-91.51A416.63,416.63,0,0,1,2160.29,532c-47.85,16.33-98.95,23.17-145.28,46.76C1944.93,614.39,1921,671.9,1921,671.9Z" transform="translate(-68.09 -75.27)"/><path class="cls-80" d="M2017,658.32a442.22,442.22,0,0,1-246.69,0V477.72H2017Z" transform="translate(-68.09 -75.27)"/><path class="cls-81" d="M2013.78,339a90,90,0,0,0-12.91.93,119.73,119.73,0,0,0-214.41,0,90.09,90.09,0,0,0-12.91-.93,88.89,88.89,0,1,0,57.79,156.42,119.79,119.79,0,0,0,124.65,0A88.89,88.89,0,1,0,2013.78,339Z" transform="translate(-68.09 -75.27)"/><circle class="cls-82" cx="1825.57" cy="317.91" r="119.7"/><path class="cls-83" d="M1771.89,704.1c15.86,6.8,46.9,14.87,64.78,6.41,16.51-7.81,14.57-31.77,28.48-40.68s57,5.2,75.95-3.4c22.5-10.2,3.2-42.15,23.34-46.4s72.09,9.05,84.61-3.39-5.18-23,26.49-40.8c26.81-15.07,62.36-34.62,54.25-57.29-8.65-24.16-43.76-13.32-65.91-1.49-28.54,15.24-27-18.88-49.54-17.63-20.41,1.13-53,57.22-70.52,61.36s-33.25-17.19-59.91-7.61-23.52,52.62-40,62-35.08-9.9-58.63,3.37S1771.89,704.1,1771.89,704.1Z" transform="translate(-68.09 -75.27)"/><path class="cls-84" d="M1752.51,551.69H1733.8a11.45,11.45,0,0,0-11.7,11.72l3.15,67.67h35.8l3.15-67.67A11.44,11.44,0,0,0,1752.51,551.69Z" transform="translate(-68.09 -75.27)"/><path class="cls-85" d="M2066.47,1012.81a306.14,306.14,0,0,0,7.86-69c0-175.41-148.27-317.61-331.18-317.61S1412,768.42,1412,943.83a306.14,306.14,0,0,0,7.86,69Z" transform="translate(-68.09 -75.27)"/><path class="cls-86" d="M2066.09,1010.71H1420.21a23.78,23.78,0,0,0-24,23.62h0a23.79,23.79,0,0,0,24,23.63h645.88a23.79,23.79,0,0,0,23.95-23.63h0A23.78,23.78,0,0,0,2066.09,1010.71Z" transform="translate(-68.09 -75.27)"/><ellipse class="cls-87" cx="2040.31" cy="903.73" rx="93.39" ry="87.53"/><path class="cls-88" d="M2139.37,952.53C2127,943,2116.23,935.11,2106.45,927c-14.3,6.33-25.7,14.63-28.89,24.37-2.08-11.51,6.41-22.33,17.89-30.92-13.63-5.8-31.23-7.2-40.56-19.32,23.88,10.47,33,7.43,49.31,10.67,7.11-9.74,12.19-19.29,8.28-31.5,8.2,12.8,8.67,21.44,7.19,31.56,17.5,0,32.93-5.91,51.82-.42-21.13-.56-32.91,7.91-50.09,11.06A116.73,116.73,0,0,0,2139.37,952.53Z" transform="translate(-68.09 -75.27)"/><path class="cls-89" d="M2093.57,899.29l9.58-9.41c3.84,3.18,12.46,18.89,9.87,28.66h-7C2104.62,911.28,2101.75,905.63,2093.57,899.29Z" transform="translate(-68.09 -75.27)"/></g><g id="clouds"><path class="cls-90" d="M2380.36,657.28C2354.64,551.17,2277,470.49,2178.6,433.07a22.63,22.63,0,0,1-13.87-26.94q.45-1.71.87-3.42C2200,264,2121.52,125.28,1990.36,92.76c-99.12-24.57-200,18.57-258.16,101a131.88,131.88,0,0,1-134.28,53.33,418.72,418.72,0,0,0-183,3.48C1190,305.06,1051.76,530.92,1106.09,755s280.7,361.53,505.61,307a420.86,420.86,0,0,0,107.8-42.45c43.15-24.36,95.55-23.84,139.21,1.43,75.16,43.51,168.58,59.09,262.17,36.4C2306.83,1012.3,2423,833.16,2380.36,657.28Z" transform="translate(-68.09 -75.27)"/><path class="cls-91" d="M1358.14,618.73c-24.47-100.92-98.32-177.66-191.9-213.25a21.53,21.53,0,0,1-13.19-25.63c.28-1.08.56-2.16.83-3.25C1186.57,244.71,1112,112.73,987.2,81.8c-94.27-23.37-190.18,17.67-245.53,96A125.44,125.44,0,0,1,614,228.55a398.19,398.19,0,0,0-174,3.31C226,283.72,94.49,498.54,146.16,711.67s267,343.86,480.89,292a400.19,400.19,0,0,0,102.54-40.38c41-23.16,90.88-22.67,132.4,1.37,71.49,41.38,160.34,56.2,249.35,34.62C1288.21,956.39,1398.7,786,1358.14,618.73Z" transform="translate(-68.09 -75.27)"/></g><g id="woman"><rect class="cls-92" x="324.98" y="402.67" width="754.8" height="541.85" rx="49.55"/><path class="cls-93" d="M1117.63,548.57V952.93A45.28,45.28,0,0,1,1072,998.18H468.89a45.41,45.41,0,0,1-45.57-45.25V548.57a45.4,45.4,0,0,1,45.57-45.25H1072A45.42,45.42,0,0,1,1117.63,548.57Z" transform="translate(-68.09 -75.27)"/><path class="cls-94" d="M307.33,955v15.28c0,27.37,27.23,49.55,60.81,49.55H1172.8c33.58,0,60.8-22.18,60.8-49.55V955Z" transform="translate(-68.09 -75.27)"/><path class="cls-95" d="M659.44,955v5.5c0,9.86,6.53,17.84,14.58,17.84h192.9c8.05,0,14.57-8,14.57-17.84V955Z" transform="translate(-68.09 -75.27)"/><path class="cls-69" d="M572.62,627.47l152,210.61-27.2-7.17,174.64-69.24L888,755.38l13.11,30.35L885.62,793l-170.1,79.76a21.9,21.9,0,0,1-26.44-6.21l-.75-1L527,662Z" transform="translate(-68.09 -75.27)"/><path class="cls-69" d="M987.33,732.86c4,11-14.11,33.13-45.53,48.17-29,13.86-53.81,10-58.73-.75C872.09,756.19,981.17,715.79,987.33,732.86Z" transform="translate(-68.09 -75.27)"/><path class="cls-96" d="M799.62,777.39l38,97.41s-114,29-164.42-3.51c-70.68-45.62-193-200.32-145.6-244.81,52.68-49.41,104.48,101.29,172.29,155.14C729,804.7,799.62,777.39,799.62,777.39Z" transform="translate(-68.09 -75.27)"/><path class="cls-69" d="M932.14,729.25c-3.48-3.81-17.14-.2-31.33,10.5-13.09,9.86-17.91,21.3-14.77,25.47C893,774.53,937.52,735.14,932.14,729.25Z" transform="translate(-68.09 -75.27)"/><path class="cls-71" d="M648.65,584.59l-104.22-6.2c-30-60.45-40.3-106.72-33-154.06,7.81-50.78,71.23-70.63,118.12-32.62C674.45,428.13,665.56,557.54,648.65,584.59Z" transform="translate(-68.09 -75.27)"/><polygon class="cls-97" points="528.77 536.85 470.31 533.37 476.96 421.53 512.69 423.65 528.77 536.85"/><path class="cls-98" d="M650.06,446.23c7.15,46.5-2.91,92.35-31.22,100.75-26.56,7.87-70.19-19.72-88.14-66.34-18.88-49.07-6.15-84.15,33.13-95.16C605.56,373.78,642.22,395.26,650.06,446.23Z" transform="translate(-68.09 -75.27)"/><path class="cls-71" d="M577.88,373.76c-13.3-.79-22.48-.14-34.15,5.05C525,387.16,499.62,408.26,491.81,459c-7.28,47.34,10.4,71.78-32.94,114.26l104.22,6.2c15.43-24.68-5.32-83.33-9.08-93.43,3.48-9.43,7.86-19.73,23.66-23,33.9-7.12,63.42-37,64-47.21S613.46,375.87,577.88,373.76Z" transform="translate(-68.09 -75.27)"/><ellipse class="cls-98" cx="559.12" cy="474.68" rx="12.73" ry="15.28" transform="translate(-199.97 153.52) rotate(-20.74)"/><path class="cls-99" d="M540.66,593.35s-94.45,159.67-75.22,330c0,0-8.21,28.42,99.06,28.89,97,.43,97-15.42,97-15.42-33.92-91.4-44-200.7-57.11-325.25C604.44,611.54,564.37,613.21,540.66,593.35Z" transform="translate(-68.09 -75.27)"/><path class="cls-100" d="M587,605s4.34,103.36,22.77,209,46.46,175.15,46.46,175.15-200.43-2-218.41-38.6C417,908.13,488,647,530.94,590.48Z" transform="translate(-68.09 -75.27)"/><path class="cls-70" d="M560.79,671.22c-15.37,28.72-30.22,58.66-43.77,88.51-6.77,15-13.23,30-19.09,45.12s-11.15,30.3-14.81,45c-.9,3.68-1.63,7.18-2.27,10.76L479,872.4c-1.06,8-2.06,16.09-2.88,24.26-1.68,16.33-3,32.85-4.09,49.41-2.12,33.11-3.55,66.56-4.37,99.75l-.39,16-31.19.25-.52-16c-1.1-33.88-1.57-67.5-1.33-101.4.16-16.94.53-33.92,1.3-51,.37-8.54.94-17.17,1.59-25.83l1.26-13.13c.57-4.72,1.31-9.47,2.18-14,3.53-18.09,8.52-34.84,13.93-51.35s11.39-32.58,17.62-48.52c12.56-31.91,25.95-62.84,40.64-94.06l11.47-24.4,49.26,25.1Z" transform="translate(-68.09 -75.27)"/><path class="cls-70" d="M465.68,1111.85c4.8-.71,9.17-13.27,8.3-30-.81-15.4-7.2-25.18-12.1-24.93C450.93,1057.5,458.25,1113,465.68,1111.85Z" transform="translate(-68.09 -75.27)"/><path class="cls-101" d="M516.41,970.89l-100.23,12.4s4-114,18.84-179.22c18.68-82,53.53-204.23,116.4-187.58,82.17,21.75-37,186.38-45.63,231.51C498.84,884.47,516.41,970.89,516.41,970.89Z" transform="translate(-68.09 -75.27)"/><path class="cls-70" d="M432.86,1157.21c-10.7-2.72-18.21-29.38-13.12-63.08,4.7-31.08,20.94-49.24,31.95-47.43C476.28,1050.75,449.42,1161.41,432.86,1157.21Z" transform="translate(-68.09 -75.27)"/><path class="cls-102" d="M630.14,391.35a302.45,302.45,0,0,1-141.69,91.72L421.31,379.34Q492.16,333.49,563,287.62Z" transform="translate(-68.09 -75.27)"/><path class="cls-103" d="M509.55,209.13a62,62,0,0,0-7.07,5.33,81.92,81.92,0,0,0-123.15,79.72,62,62,0,0,0-7.76,4.26,60.82,60.82,0,1,0,91.35,68.36,82,82,0,0,0,71.6-46.34,60.82,60.82,0,1,0-25-111.33Z" transform="translate(-68.09 -75.27)"/><circle class="cls-104" cx="460.72" cy="284.93" r="81.9" transform="translate(-134.62 333.96) rotate(-45)"/><path class="cls-105" d="M940.11,536.15h-8.27a5.17,5.17,0,0,0-5.17,5.4l1.39,31.19h15.83l1.39-31.19A5.17,5.17,0,0,0,940.11,536.15Z" transform="translate(-68.09 -75.27)"/><path class="cls-106" d="M1078.89,748.68a146.39,146.39,0,1,0-285.83,0Z" transform="translate(-68.09 -75.27)"/><path class="cls-107" d="M1078.72,747.71H793.23a10.74,10.74,0,0,0-10.59,10.89h0a10.75,10.75,0,0,0,10.59,10.89h285.49a10.75,10.75,0,0,0,10.59-10.89h0A10.74,10.74,0,0,0,1078.72,747.71Z" transform="translate(-68.09 -75.27)"/></g><g id="man"><polygon class="cls-69" points="1665.25 679.95 1683.4 679.95 1683.4 645.24 1672.31 645.24 1665.25 679.95"/><path class="cls-70" d="M1719.94,702.93c-3.07,14.25-.8,28.62,7.8,31.74,8.07,2.92,22.08-4.81,28.48-18.9,6.75-14.83,3.45-25.91-8.49-30C1735,681.35,1723.3,687.31,1719.94,702.93Z" transform="translate(-68.09 -75.27)"/><path class="cls-71" d="M1745.25,680.69c13.2,1,20.5,13,19.65,24.83-.79,11-12.6,16.94-12.6,16.94s-3.89-11.21-10.28-13c-8.91-2.49-5.06-10.45-9.22-11.31-4.33-.9-13.76-4.34-13.61-10.65C1725.3,687.71,1730.43,679.53,1745.25,680.69Z" transform="translate(-68.09 -75.27)"/><path class="cls-70" d="M1743.94,711.79c-1.07,2.39-.32,5,1.67,5.94s4.46-.32,5.53-2.71.33-5-1.66-5.93S1745,709.41,1743.94,711.79Z" transform="translate(-68.09 -75.27)"/><path class="cls-71" d="M1745.25,709.24s-1,15.4-3.93,21.26c-2.56,5.09-13.74,10.35-19.83-1.74,0,0,6.16,1.29,5.46-1.32-.82-3.07-7.16-3.11-7.16-3.11a1.59,1.59,0,0,1-1.47-1.2,12,12,0,0,1,.5-4.44s8.4,3,12,3c4.1,0,7.83-2.9,11.29-12.45Z" transform="translate(-68.09 -75.27)"/><path class="cls-69" d="M1692.25,1048.8l16.68-93.3,11.33-46,11.41-46.07,3.87-15.66,32.72,10.43-5.92,15L1745.11,917c-5.73,14.6-11.56,29.19-17.23,43.85l-28,89.83-1.17,3.75-7.13-1.74Z" transform="translate(-68.09 -75.27)"/><path class="cls-69" d="M1752.52,848.18l1.31,16.08,7.38,91.11,68.89,32.28,3.56,1.67-2.6,6.79L1827.3,995l-79-23.88a8.68,8.68,0,0,1-6-6.48l-.28-1.32L1722,868.93l-3.36-15.78Z" transform="translate(-68.09 -75.27)"/><polygon class="cls-108" points="1704.97 762.97 1643.81 774.84 1624.69 957.63 1645.21 960.44 1704.97 762.97"/><path class="cls-109" d="M1776.05,850.43l-61.7-8.62s9.46,114.44,27.92,129c10.27,8.12,67.33,21.78,67.33,21.78l6.14-17.52s-43-17.39-46.55-22.76C1765.29,946.49,1776.05,850.43,1776.05,850.43Z" transform="translate(-68.09 -75.27)"/><path class="cls-69" d="M1732.08,761.59l-40.44,57.8,7.36-2.06-47.7-18.1-4.33-1.65-3.44,8.3,4.22,1.9,46.51,21a6,6,0,0,0,7.15-1.79l.2-.27,43-55.91,4.74-6.16-12.82-9.41Z" transform="translate(-68.09 -75.27)"/><path class="cls-110" d="M1753.15,773.22c-5.94,15.58-34,50.17-55.62,56.45-12.86,3.74-40.73-15.82-40.73-15.82l4.06-12.55s21.13,14,32.49,3.25,31.49-45.33,41.74-47.24C1744.12,755.63,1755.83,766.22,1753.15,773.22Z" transform="translate(-68.09 -75.27)"/><path class="cls-75" d="M1750.25,747.89s-9.52,8.34-19,2.78c0,0-3.26,34.78-7.52,49s-16.53,50.73-16.53,50.73l69,.74C1778,819.35,1766,783.29,1750.25,747.89Z" transform="translate(-68.09 -75.27)"/><path class="cls-111" d="M1753.54,745s33.08,49.47,26.34,102.24c0,0,2.85,10.37-34.69,9s-39.68-6.59-39.68-6.59c11.88-28.32,21.11-60.37,25.7-99C1731.21,750.67,1745.24,751.19,1753.54,745Z" transform="translate(-68.09 -75.27)"/><path class="cls-70" d="M1742.77,769.55c4.71,8.13,9.28,16.62,13.47,25.1,2.1,4.25,4.1,8.53,5.94,12.83a113,113,0,0,1,4.7,12.83c.29,1.05.54,2.05.76,3.08l.64,3.39c.38,2.3.74,4.62,1.06,7,.64,4.69,1.17,9.44,1.65,14.2.93,9.53,1.66,19.16,2.21,28.73l.27,4.62,9-.22v-4.64c0-9.77-.19-19.47-.58-29.25-.21-4.88-.48-9.77-.87-14.7-.19-2.46-.43-4.94-.7-7.44l-.49-3.77c-.21-1.35-.47-2.72-.76-4a125.18,125.18,0,0,0-4.51-14.68c-1.73-4.7-3.6-9.28-5.55-13.82-3.93-9.08-8.08-17.87-12.62-26.74l-3.54-6.92-14,7.71Z" transform="translate(-68.09 -75.27)"/><path class="cls-112" d="M1759.09,753.73c11.93,11.65,18.8,38.09,23.87,60.06s1,55.33,1,55.33l-13.67.6s-.79-34-6.17-48.66S1735,774.15,1737.32,764C1739.36,755,1753.73,748.5,1759.09,753.73Z" transform="translate(-68.09 -75.27)"/><path class="cls-69" d="M1626.21,794.23c-1,3,2.57,8.42,9.25,11.66,6.15,3,11.68,1.4,12.93-1.56C1651.2,797.71,1627.84,789.58,1626.21,794.23Z" transform="translate(-68.09 -75.27)"/><path class="cls-70" d="M1778.1,908.3c3.17-.24,6.62-7.19,6.84-16.64.2-8.72-3.52-14.44-6.74-14.46C1771,877.17,1773.18,908.69,1778.1,908.3Z" transform="translate(-68.09 -75.27)"/><path class="cls-70" d="M1771,895c-1.33-.43-2-4.22-.89-8.92,1-4.35,3.27-6.82,4.65-6.5C1777.89,880.31,1773.1,895.72,1771,895Z" transform="translate(-68.09 -75.27)"/><path class="cls-71" d="M1664.93,1059s4.71-1.25,6-1.72c5.22-1.87,18.72-7.41,18.72-7.41a8.11,8.11,0,0,0,5.83,3.21,11.06,11.06,0,0,0,5.43-.73c1.33,0,2.48,2.11,2.56,4.8a8.89,8.89,0,0,1-.25,2.44l.11,3.74-39.8,1.19-.12-3.79A1.7,1.7,0,0,1,1664.93,1059Z" transform="translate(-68.09 -75.27)"/><path class="cls-71" d="M1828.55,1023.91s.18-4.88.11-6.27c-.27-5.53-1.63-20.06-1.63-20.06a8.12,8.12,0,0,0,4.77-4.65,10.92,10.92,0,0,0,.88-5.4c.35-1.29,2.74-1.76,5.34-1a8.64,8.64,0,0,1,2.26.95l3.61,1-10.46,38.43-3.66-1A1.68,1.68,0,0,1,1828.55,1023.91Z" transform="translate(-68.09 -75.27)"/><path class="cls-113" d="M1724.47,685.14a85.89,85.89,0,0,0,39.34,27.34l20-28.8-39.34-27.34Z" transform="translate(-68.09 -75.27)"/><path class="cls-114" d="M1760.39,634.57a17.91,17.91,0,0,1,1.95,1.58,23.25,23.25,0,0,1,34.19,23.77,17,17,0,0,1,2.16,1.28,17.26,17.26,0,1,1-26.55,18.54,23.26,23.26,0,0,1-19.88-13.82,17.26,17.26,0,1,1,8.13-31.35Z" transform="translate(-68.09 -75.27)"/><path class="cls-115" d="M1754.44,643.26a23.25,23.25,0,1,0,32.36-5.82A23.25,23.25,0,0,0,1754.44,643.26Z" transform="translate(-68.09 -75.27)"/><rect class="cls-116" x="1566.54" y="706.11" width="64.36" height="173.64" transform="translate(113.57 -367.06) rotate(11.05)"/><rect class="cls-117" x="1595.54" y="654.5" width="44.4" height="82.18" rx="7.71" transform="translate(556.83 2074.69) rotate(-78.95)"/><path class="cls-118" d="M1644.4,733.2l-65.52-12.8a7.7,7.7,0,0,0-9,6.09L1539.5,881.77a7.72,7.72,0,0,0,6.09,9.05l65.52,12.8a7.71,7.71,0,0,0,9-6.09l30.34-155.28A7.72,7.72,0,0,0,1644.4,733.2Z" transform="translate(-68.09 -75.27)"/><rect class="cls-119" x="1558.29" y="762.57" width="76.68" height="82.18" transform="translate(433.7 2141.33) rotate(-78.95)"/><path class="cls-120" d="M1610.44,674.54c-.17.88-2.77,1.11-5.81.51s-5.36-1.78-5.18-2.66,2.77-1.11,5.8-.52S1610.61,673.66,1610.44,674.54Z" transform="translate(-68.09 -75.27)"/><path class="cls-121" d="M1626.92,677.76c-.17.88-2.77,1.11-5.8.51s-5.36-1.78-5.19-2.66,2.77-1.11,5.81-.52S1627.1,676.88,1626.92,677.76Z" transform="translate(-68.09 -75.27)"/><path class="cls-122" d="M1643.41,681c-.17.88-2.77,1.11-5.81.51s-5.35-1.78-5.18-2.66,2.77-1.11,5.81-.52S1643.58,680.1,1643.41,681Z" transform="translate(-68.09 -75.27)"/><path class="cls-69" d="M1634.87,790.66c.93-1,4.65-.12,8.55,2.73,3.59,2.63,4.94,5.71,4.11,6.86C1645.66,802.8,1633.43,792.28,1634.87,790.66Z" transform="translate(-68.09 -75.27)"/></g><g id="man2"><polygon class="cls-69" points="2399.34 328.21 2384.25 326.67 2387.19 297.79 2396.42 298.74 2399.34 328.21"/><path class="cls-70" d="M2483,361.13c1.34,12.11-1.76,23.87-9.19,25.73-7,1.75-17.95-5.87-22.08-18.14-4.35-12.91-.67-21.85,9.62-24.26C2472.3,341.89,2481.55,347.85,2483,361.13Z" transform="translate(-68.09 -75.27)"/><path class="cls-71" d="M2454.9,376.82l1.66-.48s0-5.68,1.12-7c1.5-1.71,8.09-.85,8.09-.85s.89-6.23,3.55-7.66c2.37-1.26,11.66-1.34,15,.87,0,0,2.2-5.84,0-11.51-2.36-6.26-7.55-8.69-14.22-9.71s-14-.58-16.21,6.77c0,0-5.87.66-6.67,8.58S2454.9,376.82,2454.9,376.82Z" transform="translate(-68.09 -75.27)"/><path class="cls-70" d="M2463.08,367.34c.69,2.08-.15,4.22-1.88,4.8s-3.69-.65-4.38-2.73.16-4.22,1.89-4.79S2462.4,365.27,2463.08,367.34Z" transform="translate(-68.09 -75.27)"/><path class="cls-69" d="M2572.09,595.75l-17.15-75.32a7.38,7.38,0,0,0-5.13-5.43l-1-.28-81.35-23.51-13-3.75-6.23,27.89,13.32,2.13,79.34,12.69,24.87,67.45,1.13,3.08,5.87-1.75Z" transform="translate(-68.09 -75.27)"/><path class="cls-70" d="M2547.39,519.21l-1-.29-79.09-21.66-13-3.56-5.8,28,13.36,1.89,50.34,7.12-39,15.06-3.06,1.18,1.81,5.84,3.19-.76,72-17.16a8.1,8.1,0,0,0,.27-15.7Z" transform="translate(-68.09 -75.27)"/><path class="cls-123" d="M2481.33,486.12c13.7,12.88,65.12,16.59,75.07,27.71,10.27,11.47,14.66,69.07,14.66,69.07l-12.19,3.61s-17.07-54.48-20.19-56.82-73,1.16-90.13-10.4c-14.22-9.58-6.63-33.17-6.63-33.17Z" transform="translate(-68.09 -75.27)"/><path class="cls-124" d="M2475.09,486.12c9.56,15.42,77.19,19.77,80.76,36.16,3.88,17.9-70.95,29.77-70.95,29.77l-3.24-12.12s28-7.46,27.56-9-50,2.57-66.91-11.67c-13.11-11.06-6.63-33.17-6.63-33.17Z" transform="translate(-68.09 -75.27)"/><path class="cls-69" d="M2467.86,408.77l12.72,56.59-5-3.92,41.94,1.13,3.87.1,0,7.5-3.87.14-41.93,1.48a5,5,0,0,1-5-3.66l-.07-.27-15.3-55.95-1.71-6.27,12.9-3.22Z" transform="translate(-68.09 -75.27)"/><path class="cls-125" d="M2448.09,411.07c-.34,13.7,10,48.74,24.53,60.27,8.62,6.86,36.12.7,36.12.7l.82-10.82s-21.12,2.5-26.4-9.25-9.16-42.72-16.36-47.37C2460.45,400.5,2448.24,404.91,2448.09,411.07Z" transform="translate(-68.09 -75.27)"/><path class="cls-126" d="M2452.8,398.79s8,7,15.92,2.33c0,0,2.73,29.08,6.29,40.94s14,43,14,43h-57.87C2429.63,458.55,2439.66,428.4,2452.8,398.79Z" transform="translate(-68.09 -75.27)"/><path class="cls-127" d="M2450.68,396.13s-27.65,41.37-22,85.49c0,0-2.38,8.67,29,7.48s33.18-5.51,33.18-5.51a302.63,302.63,0,0,1-21.48-82.75S2457.62,401.27,2450.68,396.13Z" transform="translate(-68.09 -75.27)"/><path class="cls-69" d="M2537.8,464.42c.07,2.66-3.82,6-9.43,6.88-5.17.78-8.84-1.91-9.07-4.59C2518.77,460.72,2537.68,460.3,2537.8,464.42Z" transform="translate(-68.09 -75.27)"/><path class="cls-69" d="M2533.45,459.54c-.47-1.08-3.67-1.29-7.5,0-3.53,1.18-5.4,3.29-5,4.41C2521.75,466.44,2534.18,461.19,2533.45,459.54Z" transform="translate(-68.09 -75.27)"/><path class="cls-128" d="M2465.72,400.13a362.66,362.66,0,0,0,6,53.26c5.39,27.69,13.6,45.93,13.6,45.93s-54.44,3.32-63.91-10.12c-8.53-12.12,14.68-79.6,27.25-94.42Z" transform="translate(-68.09 -75.27)"/><path class="cls-71" d="M2475.55,582.31l-.42-5.81h0l2.7-22.3-.16,0s-3.55.64-5.27-3.41a9.59,9.59,0,0,1-.71-6.18,1,1,0,0,0,.18-.53c-.35-1.36-2.85-1.89-5.58-1.2a9,9,0,0,0-2.38,1l-3.8,1,10.29,40.45,3.84-1A1.76,1.76,0,0,0,2475.55,582.31Z" transform="translate(-68.09 -75.27)"/><path class="cls-71" d="M2600.55,603.17l-5.73-1h0l-21-8v.17s-.24,3.59-4.59,4.28a9.54,9.54,0,0,1-6.16-.81,1,1,0,0,0-.47-.3c-1.4,0-2.53,2.3-2.51,5.12a9.54,9.54,0,0,0,.34,2.55l0,3.92,41.74-.18,0-4A1.77,1.77,0,0,0,2600.55,603.17Z" transform="translate(-68.09 -75.27)"/><path class="cls-129" d="M2693.81,280.74c16,13.64,15.55,40.58-1,60.05-16,18.8-88.42,50.09-91.49,51.41a2,2,0,0,1-2.78-2.37c.82-3.24,20.17-79.71,36.18-98.51C2651.27,271.85,2677.79,267.1,2693.81,280.74Zm-90.32,106c15.43-6.83,72.82-32.94,86.18-48.62,15.14-17.77,15.81-42.14,1.5-54.32s-38.26-7.65-53.39,10.12C2624.42,309.65,2607.79,370.46,2603.49,386.78Z" transform="translate(-68.09 -75.27)"/><path class="cls-130" d="M2693.81,280.74c5.58,4.75,7.52,13,5.47,23.1-2,9.72-7.41,20.18-15.31,29.46-15.92,18.69-79.74,57.15-82.45,58.77a2,2,0,0,1-2.93-2.5c1.17-2.93,29-72.06,44.89-90.75,7.9-9.28,17.37-16.31,26.65-19.8C2679.81,275.37,2688.22,276,2693.81,280.74ZM2604.7,385.37c15.94-9.82,63.29-39.58,76.17-54.71,7.47-8.76,12.59-18.57,14.42-27.63,1.75-8.62.28-15.44-4.12-19.19s-11.37-4.12-19.61-1c-8.65,3.26-17.52,9.87-25,18.63C2633.7,316.58,2611.85,368.06,2604.7,385.37Z" transform="translate(-68.09 -75.27)"/><path class="cls-131" d="M2693.81,280.74c7,5.94-4.51,26.81-19.46,44.37-15.81,18.56-70.25,64.81-72.56,66.77a2,2,0,0,1-3.06-2.6c1.57-2.6,38.56-63.71,54.37-82.27C2668.05,289.46,2686.83,274.8,2693.81,280.74ZM2609,380.36c16.88-14.58,50.71-44.29,62.29-57.89,16.75-19.67,23-36,19.92-38.63s-18.22,6.14-35,25.81C2644.62,323.25,2620.67,361.38,2609,380.36Z" transform="translate(-68.09 -75.27)"/><path class="cls-132" d="M2693.81,280.74a2,2,0,0,1,.23,2.87l-92,108a2,2,0,1,1-3.09-2.64l92-108A2,2,0,0,1,2693.81,280.74Z" transform="translate(-68.09 -75.27)"/><rect class="cls-133" x="2563.7" y="370.63" width="11.53" height="112.22" transform="translate(4180.85 2342.35) rotate(-139.58)"/><path class="cls-134" d="M2483,523.62l4.56,3.88a12,12,0,0,0,16.89-1.4l51.3-60.91a5,5,0,0,0-.58-7l-14.49-12.34a5,5,0,0,0-7,.54l-52,60.35A11.94,11.94,0,0,0,2483,523.62Zm13.57-21.88a6.86,6.86,0,0,1,9.66-.78h0a6.85,6.85,0,0,1,.77,9.66l-3.74,4.4a6.86,6.86,0,0,1-9.66.78h0a6.85,6.85,0,0,1-.77-9.66Z" transform="translate(-68.09 -75.27)"/><path class="cls-70" d="M2462.24,416.12l.91,59-4.14-4.87,41.52,9.83,3.77.89-1.51,7.35-3.82-.66-42-7.27a5,5,0,0,1-4.12-4.6v-.28l-3.56-58.87-.4-6.49,13.29-.5Z" transform="translate(-68.09 -75.27)"/><path class="cls-70" d="M2519.7,486.8c-.54,2.61-5.1,5-10.75,4.54-5.22-.42-8.18-3.88-7.79-6.54C2502,478.85,2520.52,482.77,2519.7,486.8Z" transform="translate(-68.09 -75.27)"/><path class="cls-70" d="M2516.58,481.05c-.21-1.15-3.28-2.09-7.3-1.72-3.71.33-6,2-5.9,3.14C2503.61,485.1,2516.91,482.83,2516.58,481.05Z" transform="translate(-68.09 -75.27)"/><path class="cls-135" d="M2442.2,414.29c-4.08,13.33-.11,50.43,11.94,64.94,7.15,8.61,35.73,8.36,35.73,8.36l3.07-10.59s-21.21-.19-24-13-.58-48.27-6.78-54.4C2456.67,404.22,2444.4,407.09,2442.2,414.29Z" transform="translate(-68.09 -75.27)"/></g></svg>